<svg width="18" height="18" viewBox="0 0 18 18" fill="none" xmlns="http://www.w3.org/2000/svg">
<g clip-path="url(#clip0_283_6666)">
<path d="M16.9161 10.2465L15.4911 5.11951C15.0734 3.61751 14.1657 2.29823 12.9121 1.37136C11.6586 0.444502 10.1312 -0.0367482 8.57271 0.00411186C7.01425 0.0449719 5.51417 0.605597 4.31091 1.59687C3.10765 2.58815 2.27027 3.95319 1.93186 5.47501L0.828614 10.4363C0.706751 10.9845 0.709568 11.553 0.836859 12.1C0.964149 12.647 1.21266 13.1584 1.56405 13.5964C1.91544 14.0345 2.36073 14.388 2.86705 14.631C3.37337 14.8739 3.92778 15 4.48936 15H5.32486C5.497 15.8477 5.95691 16.6099 6.62667 17.1573C7.29643 17.7047 8.13485 18.0038 8.99986 18.0038C9.86488 18.0038 10.7033 17.7047 11.3731 17.1573C12.0428 16.6099 12.5027 15.8477 12.6749 15H13.3034C13.8815 15.0001 14.4518 14.8664 14.9697 14.6096C15.4876 14.3527 15.9391 13.9796 16.289 13.5194C16.6388 13.0592 16.8775 12.5243 16.9865 11.9565C17.0954 11.3888 17.0716 10.8035 16.9169 10.2465H16.9161ZM8.99986 16.5C8.53617 16.4981 8.08439 16.3529 7.70634 16.0844C7.32829 15.8159 7.04243 15.4372 6.88786 15H11.1119C10.9573 15.4372 10.6714 15.8159 10.2934 16.0844C9.91534 16.3529 9.46356 16.4981 8.99986 16.5ZM15.0944 12.6113C14.8854 12.8885 14.6146 13.1132 14.3036 13.2675C13.9925 13.4218 13.6498 13.5014 13.3026 13.5H4.48936C4.15245 13.5 3.81985 13.4242 3.51612 13.2784C3.21239 13.1327 2.94527 12.9205 2.73449 12.6577C2.5237 12.3949 2.37463 12.088 2.29829 11.7599C2.22194 11.4318 2.22025 11.0906 2.29336 10.7618L3.39586 5.79976C3.66163 4.60442 4.31934 3.53222 5.26446 2.7536C6.20957 1.97498 7.38783 1.53464 8.61194 1.50257C9.83606 1.4705 11.0358 1.84855 12.0203 2.57661C13.0049 3.30468 13.7179 4.34097 14.0459 5.52076L15.4709 10.6478C15.565 10.9818 15.58 11.3332 15.5147 11.674C15.4493 12.0148 15.3054 12.3358 15.0944 12.6113Z" fill="#4785FF"/>
</g>
<defs>
<clipPath id="clip0_283_6666">
<rect width="18" height="18" fill="white"/>
</clipPath>
</defs>
</svg>
