<svg width="24" height="24" viewBox="0 0 24 24" fill="none" xmlns="http://www.w3.org/2000/svg">
<g clip-path="url(#clip0_297_16055)">
<path d="M5.76259 22.5515L5.76257 22.5515L5.75886 22.5552C5.41278 22.9068 4.96879 23.1459 4.4848 23.2413C4.00081 23.3367 3.49929 23.2841 3.04567 23.0902L2.84917 23.55L3.03607 23.0862C2.57815 22.9017 2.18658 22.5833 1.91255 22.1726C1.63852 21.7619 1.49478 21.2781 1.50014 20.7844H1.50017V20.779V5.00031C1.50168 3.80722 1.9763 2.66342 2.81995 1.81977C3.6636 0.976125 4.80739 0.501506 6.00048 0.5H17.9999C19.193 0.501506 20.3368 0.976125 21.1804 1.81977C22.0241 2.66349 22.4987 3.8074 22.5002 5.0006V20.779H22.5001L22.5002 20.7847C22.5058 21.278 22.3626 21.7615 22.0892 22.1722C21.8158 22.5828 21.4249 22.9014 20.9676 23.0865L20.9676 23.0865L20.9619 23.0889C20.6525 23.2185 20.3205 23.2859 19.985 23.287C19.6606 23.2863 19.3395 23.2213 19.0404 23.0958C18.7409 22.9701 18.4693 22.7863 18.2413 22.555L18.2413 22.555L18.2378 22.5515L12.3528 16.6985L12.0002 16.3478L11.6476 16.6985L5.76259 22.5515Z" fill="#4785FF" stroke="#E1EFFF"/>
</g>
<defs>
<clipPath id="clip0_297_16055">
<rect width="24" height="24" fill="white"/>
</clipPath>
</defs>
</svg>
