<svg width="32" height="32" viewBox="0 0 32 32" fill="none" xmlns="http://www.w3.org/2000/svg">
<circle cx="16" cy="16" r="16" fill="#F1F1F1"/>
<g clip-path="url(#clip0_283_6668)">
<path d="M20.1598 9.45452L19.1322 8.12216C18.9275 7.85875 18.6655 7.64537 18.3661 7.4982C18.0668 7.35103 17.7378 7.27391 17.4042 7.27271H14.594C14.2604 7.27391 13.9315 7.35103 13.6321 7.4982C13.3327 7.64537 13.0707 7.85875 12.866 8.12216L11.8384 9.45452H20.1598Z" fill="#989898"/>
<path d="M15.9994 20.3636C17.6061 20.3636 18.9085 19.0611 18.9085 17.4545C18.9085 15.8479 17.6061 14.5454 15.9994 14.5454C14.3928 14.5454 13.0903 15.8479 13.0903 17.4545C13.0903 19.0611 14.3928 20.3636 15.9994 20.3636Z" fill="#989898"/>
<path d="M21.0902 10.9089H10.9083C9.94427 10.9101 9.02001 11.2936 8.33831 11.9753C7.65661 12.657 7.27313 13.5812 7.27197 14.5453L7.27197 21.0907C7.27313 22.0548 7.65661 22.9791 8.33831 23.6608C9.02001 24.3425 9.94427 24.7259 10.9083 24.7271H21.0902C22.0542 24.7259 22.9785 24.3425 23.6602 23.6608C24.3419 22.9791 24.7254 22.0548 24.7265 21.0907V14.5453C24.7254 13.5812 24.3419 12.657 23.6602 11.9753C22.9785 11.2936 22.0542 10.9101 21.0902 10.9089ZM15.9992 21.818C15.1362 21.818 14.2925 21.5621 13.5749 21.0826C12.8573 20.6031 12.298 19.9216 11.9678 19.1243C11.6375 18.3269 11.5511 17.4495 11.7195 16.6031C11.8878 15.7566 12.3034 14.9791 12.9137 14.3688C13.524 13.7586 14.3015 13.343 15.1479 13.1746C15.9944 13.0062 16.8718 13.0926 17.6691 13.4229C18.4665 13.7532 19.148 14.3125 19.6275 15.0301C20.107 15.7477 20.3629 16.5913 20.3629 17.4544C20.3617 18.6113 19.9016 19.7206 19.0835 20.5387C18.2654 21.3567 17.1562 21.8169 15.9992 21.818Z" fill="#989898"/>
</g>
<defs>
<clipPath id="clip0_283_6668">
<rect width="17.4545" height="17.4545" fill="white" transform="translate(7.27197 7.27271)"/>
</clipPath>
</defs>
</svg>
