<svg width="12" height="12" viewBox="0 0 12 12" fill="none" xmlns="http://www.w3.org/2000/svg">
<g clip-path="url(#clip0_281_6014)">
<path fill-rule="evenodd" clip-rule="evenodd" d="M6.70726 5.99991L7.76792 4.93925C7.86169 4.84548 7.91437 4.7183 7.91437 4.58569C7.91437 4.45309 7.86169 4.32591 7.76792 4.23214C7.67415 4.13837 7.54697 4.08569 7.41436 4.08569C7.28176 4.08569 7.15458 4.13837 7.06081 4.23214L6.00015 5.2928L4.93949 4.23214C4.84572 4.13837 4.71855 4.08569 4.58594 4.08569C4.45333 4.08569 4.32615 4.13837 4.23238 4.23214C4.13862 4.32591 4.08594 4.45309 4.08594 4.58569C4.08594 4.7183 4.13862 4.84548 4.23238 4.93925L5.29304 5.99991L4.23238 7.06057C4.13862 7.15434 4.08594 7.28151 4.08594 7.41412C4.08594 7.54673 4.13862 7.67391 4.23238 7.76767C4.32615 7.86144 4.45333 7.91412 4.58594 7.91412C4.71855 7.91412 4.84572 7.86144 4.93949 7.76767L6.00015 6.70701L7.06081 7.76767C7.15458 7.86144 7.28176 7.91412 7.41437 7.91412C7.54697 7.91412 7.67415 7.86144 7.76792 7.76767C7.86169 7.67391 7.91437 7.54673 7.91437 7.41412C7.91437 7.28151 7.86169 7.15434 7.76792 7.06057L6.70726 5.99991Z" fill="white"/>
<path d="M1.75729 1.75736C0.918176 2.59647 0.346731 3.66557 0.11522 4.82946C-0.116291 5.99334 0.00252886 7.19974 0.456655 8.2961C0.91078 9.39246 1.67982 10.3295 2.66651 10.9888C3.65321 11.6481 4.81324 12 5.99993 12C7.18662 12 8.34666 11.6481 9.33335 10.9888C10.32 10.3295 11.0891 9.39246 11.5432 8.2961C11.9973 7.19974 12.1162 5.99334 11.8846 4.82946C11.6531 3.66557 11.0817 2.59647 10.2426 1.75736C9.11651 0.633729 7.5907 0.0026853 5.99993 0.0026853C4.40916 0.00268525 2.88335 0.633729 1.75729 1.75736V1.75736ZM7.7677 4.93934L6.70704 6L7.7677 7.06066C7.86147 7.15443 7.91415 7.2816 7.91415 7.41421C7.91415 7.54682 7.86147 7.674 7.7677 7.76776C7.67393 7.86153 7.54675 7.91421 7.41415 7.91421C7.28154 7.91421 7.15436 7.86153 7.06059 7.76776L5.99993 6.70711L4.93927 7.76777C4.8455 7.86153 4.71833 7.91421 4.58572 7.91421C4.45311 7.91421 4.32593 7.86153 4.23216 7.76777C4.1384 7.674 4.08572 7.54682 4.08572 7.41421C4.08572 7.2816 4.1384 7.15443 4.23216 7.06066L5.29282 6L4.23216 4.93934C4.1384 4.84557 4.08572 4.71839 4.08572 4.58578C4.08572 4.45318 4.1384 4.326 4.23216 4.23223C4.32593 4.13846 4.45311 4.08578 4.58572 4.08578C4.71833 4.08578 4.8455 4.13846 4.93927 4.23223L5.99993 5.29289L7.06059 4.23223C7.15436 4.13846 7.28154 4.08578 7.41415 4.08578C7.54675 4.08578 7.67393 4.13846 7.7677 4.23223C7.86147 4.326 7.91415 4.45318 7.91415 4.58578C7.91415 4.71839 7.86147 4.84557 7.7677 4.93934Z" fill="#666666"/>
</g>
<defs>
<clipPath id="clip0_281_6014">
<rect width="12" height="12" fill="white"/>
</clipPath>
</defs>
</svg>
