<svg width="36" height="36" viewBox="0 0 36 36" fill="none" xmlns="http://www.w3.org/2000/svg">
<g clip-path="url(#clip0_275_15744)">
<path d="M35.5602 33.4406L26.6067 24.4871C29.0466 21.503 30.2462 17.6953 29.9574 13.8515C29.6686 10.0077 27.9135 6.42194 25.0551 3.83592C22.1966 1.2499 18.4536 -0.138524 14.6001 -0.0421761C10.7467 0.0541716 7.07773 1.62792 4.35209 4.35356C1.62646 7.07919 0.0527068 10.7482 -0.043641 14.6016C-0.139989 18.455 1.24844 22.1981 3.83445 25.0565C6.42047 27.915 10.0062 29.6701 13.85 29.9589C17.6938 30.2477 21.5016 29.0481 24.4857 26.6081L33.4392 35.5616C33.7221 35.8349 34.101 35.9861 34.4943 35.9827C34.8876 35.9792 35.2638 35.8215 35.5419 35.5434C35.82 35.2653 35.9778 34.889 35.9812 34.4957C35.9846 34.1025 35.8334 33.7235 35.5602 33.4406ZM14.9997 27.0011C12.6263 27.0011 10.3062 26.2974 8.33283 24.9788C6.35944 23.6602 4.82137 21.7861 3.91312 19.5933C3.00487 17.4006 2.76723 14.9878 3.23025 12.6601C3.69327 10.3323 4.83616 8.19409 6.51439 6.51586C8.19262 4.83763 10.3308 3.69474 12.6586 3.23171C14.9864 2.76869 17.3992 3.00633 19.5919 3.91458C21.7846 4.82283 23.6587 6.36091 24.9773 8.3343C26.2959 10.3077 26.9997 12.6278 26.9997 15.0011C26.9961 18.1826 25.7307 21.2328 23.481 23.4825C21.2313 25.7321 18.1812 26.9976 14.9997 27.0011Z" fill="black"/>
</g>
<defs>
<clipPath id="clip0_275_15744">
<rect width="36" height="36" fill="white"/>
</clipPath>
</defs>
</svg>
