<svg width="18" height="18" viewBox="0 0 18 18" fill="none" xmlns="http://www.w3.org/2000/svg">
<path d="M16.813 15.8711L12.8369 11.8951C13.9205 10.5699 14.4532 8.87893 14.325 7.17198C14.1967 5.46502 13.4173 3.87267 12.1479 2.72427C10.8785 1.57587 9.21632 0.959301 7.50509 1.00209C5.79386 1.04487 4.16454 1.74374 2.95414 2.95414C1.74374 4.16454 1.04487 5.79386 1.00209 7.50509C0.959301 9.21632 1.57587 10.8785 2.72427 12.1479C3.87267 13.4173 5.46502 14.1967 7.17198 14.325C8.87893 14.4532 10.5699 13.9205 11.8951 12.8369L15.8711 16.813C15.9968 16.9344 16.165 17.0015 16.3397 17C16.5143 16.9985 16.6814 16.9284 16.8049 16.8049C16.9284 16.6814 16.9985 16.5143 17 16.3397C17.0015 16.165 16.9344 15.9968 16.813 15.8711ZM7.68251 13.0115C6.62855 13.0115 5.59825 12.6989 4.72191 12.1134C3.84556 11.5278 3.16254 10.6956 2.7592 9.72182C2.35587 8.74808 2.25034 7.6766 2.45595 6.64289C2.66157 5.60917 3.16911 4.65964 3.91437 3.91437C4.65964 3.16911 5.60917 2.66157 6.64289 2.45595C7.6766 2.25034 8.74808 2.35587 9.72182 2.7592C10.6956 3.16254 11.5278 3.84556 12.1134 4.72191C12.6989 5.59825 13.0115 6.62855 13.0115 7.68251C13.0099 9.09535 12.4479 10.4499 11.4489 11.4489C10.4499 12.4479 9.09535 13.0099 7.68251 13.0115Z" fill="#4785FF"/>
</svg>
