<svg width="20" height="20" viewBox="0 0 20 20" fill="none" xmlns="http://www.w3.org/2000/svg">
<path d="M10.0047 20.0034C9.895 20.004 9.78628 19.983 9.68475 19.9415C9.58322 19.9001 9.49087 19.839 9.413 19.7617C9.3349 19.6842 9.2729 19.5921 9.23059 19.4905C9.18829 19.389 9.1665 19.2801 9.1665 19.1701C9.1665 19.06 9.18829 18.9511 9.23059 18.8496C9.2729 18.748 9.3349 18.6559 9.413 18.5784L16.2213 11.7701C16.6895 11.3013 16.9525 10.6659 16.9525 10.0034C16.9525 9.3409 16.6895 8.70548 16.2213 8.23673L9.413 1.42841C9.25608 1.27149 9.16793 1.05866 9.16793 0.836742C9.16793 0.614824 9.25608 0.401996 9.413 0.245076C9.56992 0.0881565 9.78275 0 10.0047 0C10.2266 0 10.4394 0.0881565 10.5963 0.245076L17.4047 7.0534C17.7927 7.44045 18.1006 7.90024 18.3106 8.40645C18.5207 8.91266 18.6288 9.45534 18.6288 10.0034C18.6288 10.5515 18.5207 11.0941 18.3106 11.6003C18.1006 12.1066 17.7927 12.5663 17.4047 12.9534L10.5963 19.7617C10.5185 19.839 10.4261 19.9001 10.3246 19.9415C10.2231 19.983 10.1143 20.004 10.0047 20.0034Z" fill="black"/>
<path d="M1.6665 9.25C1.25229 9.25 0.916504 9.58579 0.916504 10C0.916504 10.4142 1.25229 10.75 1.6665 10.75V9.25ZM1.6665 10.75H17.0832V9.25H1.6665V10.75Z" fill="black"/>
</svg>
