<svg width="12" height="12" viewBox="0 0 12 12" fill="none" xmlns="http://www.w3.org/2000/svg">
<g clip-path="url(#clip0_297_16045)">
<path d="M8.74998 0.958252C8.18695 0.967009 7.63621 1.12418 7.15336 1.41389C6.67051 1.7036 6.27266 2.11559 5.99998 2.60825C5.7273 2.11559 5.32945 1.7036 4.8466 1.41389C4.36375 1.12418 3.813 0.967009 3.24998 0.958252C2.35245 0.997247 1.50683 1.38988 0.897871 2.05037C0.288909 2.71086 -0.0338961 3.58551 -2.08546e-05 4.48325C-2.08546e-05 6.75675 2.39298 9.23975 4.39998 10.9233C4.84809 11.2998 5.41466 11.5063 5.99998 11.5063C6.5853 11.5063 7.15187 11.2998 7.59998 10.9233C9.60698 9.23975 12 6.75675 12 4.48325C12.0339 3.58551 11.711 2.71086 11.1021 2.05037C10.4931 1.38988 9.64751 0.997247 8.74998 0.958252ZM6.95748 10.1583C6.68947 10.3839 6.35036 10.5077 5.99998 10.5077C5.6496 10.5077 5.31049 10.3839 5.04248 10.1583C2.47348 8.00275 0.999979 5.93475 0.999979 4.48325C0.965799 3.85061 1.18316 3.23012 1.60466 2.7571C2.02616 2.28409 2.6176 1.99693 3.24998 1.95825C3.88236 1.99693 4.4738 2.28409 4.8953 2.7571C5.3168 3.23012 5.53416 3.85061 5.49998 4.48325C5.49998 4.61586 5.55266 4.74304 5.64643 4.83681C5.74019 4.93057 5.86737 4.98325 5.99998 4.98325C6.13259 4.98325 6.25976 4.93057 6.35353 4.83681C6.4473 4.74304 6.49998 4.61586 6.49998 4.48325C6.4658 3.85061 6.68316 3.23012 7.10466 2.7571C7.52616 2.28409 8.1176 1.99693 8.74998 1.95825C9.38236 1.99693 9.9738 2.28409 10.3953 2.7571C10.8168 3.23012 11.0342 3.85061 11 4.48325C11 5.93475 9.52648 8.00275 6.95748 10.1563V10.1583Z" fill="#494949"/>
</g>
<defs>
<clipPath id="clip0_297_16045">
<rect width="12" height="12" fill="white"/>
</clipPath>
</defs>
</svg>
