<svg width="20" height="20" viewBox="0 0 20 20" fill="none" xmlns="http://www.w3.org/2000/svg">
<g clip-path="url(#clip0_275_15606)">
<path d="M14.3082 20C14.1985 20.0006 14.0898 19.9796 13.9883 19.9381C13.8867 19.8966 13.7944 19.8355 13.7165 19.7583L6.9082 12.95C6.52017 12.5629 6.21231 12.1031 6.00226 11.5969C5.79221 11.0907 5.68408 10.548 5.68408 9.99998C5.68408 9.45192 5.79221 8.90924 6.00226 8.40304C6.21231 7.89683 6.52017 7.43703 6.9082 7.04998L13.7165 0.241658C13.7942 0.163959 13.8865 0.102325 13.988 0.0602752C14.0895 0.018225 14.1983 -0.00341797 14.3082 -0.00341797C14.4181 -0.00341797 14.5269 0.018225 14.6284 0.0602752C14.7299 0.102325 14.8222 0.163959 14.8999 0.241658C14.9776 0.319357 15.0392 0.411599 15.0812 0.513117C15.1233 0.614635 15.1449 0.723442 15.1449 0.833324C15.1449 0.943207 15.1233 1.05201 15.0812 1.15353C15.0392 1.25505 14.9776 1.34729 14.8999 1.42499L8.09153 8.23332C7.62336 8.70207 7.3604 9.33748 7.3604 9.99998C7.3604 10.6625 7.62336 11.2979 8.09153 11.7666L14.8999 18.575C14.978 18.6524 15.04 18.7446 15.0823 18.8462C15.1246 18.9477 15.1464 19.0566 15.1464 19.1666C15.1464 19.2766 15.1246 19.3856 15.0823 19.4871C15.04 19.5887 14.978 19.6808 14.8999 19.7583C14.822 19.8355 14.7297 19.8966 14.6281 19.9381C14.5266 19.9796 14.4179 20.0006 14.3082 20Z" fill="#494949"/>
</g>
<defs>
<clipPath id="clip0_275_15606">
<rect width="20" height="20" fill="white"/>
</clipPath>
</defs>
</svg>
