<svg width="20" height="20" viewBox="0 0 20 20" fill="none" xmlns="http://www.w3.org/2000/svg">
<path d="M13.1249 7.93761L9.30329 4.11594C9.06879 3.88155 8.75079 3.74992 8.41924 3.75C8.0877 3.75008 7.76976 3.88186 7.53537 4.11636C7.30099 4.35085 7.16936 4.66885 7.16943 5.0004C7.16951 5.33195 7.30129 5.64989 7.53579 5.88427L11.3574 9.70511C11.3963 9.74381 11.427 9.78979 11.448 9.84041C11.469 9.89103 11.4799 9.9453 11.4799 10.0001C11.4799 10.0549 11.469 10.1092 11.448 10.1598C11.427 10.2104 11.3963 10.2564 11.3574 10.2951L7.53579 14.1159C7.30129 14.3503 7.16951 14.6683 7.16943 14.9998C7.16936 15.3314 7.30099 15.6494 7.53537 15.8839C7.76976 16.1184 8.0877 16.2501 8.41924 16.2502C8.75079 16.2503 9.06879 16.1187 9.30329 15.8843L13.1249 12.0626C13.671 11.5151 13.9776 10.7734 13.9776 10.0001C13.9776 9.22684 13.671 8.48514 13.1249 7.93761Z" fill="#666666"/>
</svg>
