<svg width="16" height="16" viewBox="0 0 16 16" fill="none" xmlns="http://www.w3.org/2000/svg">
<path d="M15.0896 0L15.8438 0.76919L0.910417 16L0.156251 15.2308L3.36979 11.9533C1.18536 10.4447 0.107113 8.33542 0.0927095 8.30704C0.0322026 8.21655 -0.000109161 8.10953 1.90735e-06 8C8.2791e-05 7.87731 0.0408298 7.75824 0.115626 7.66215C0.171195 7.57092 3.24358 2.56042 8 2.56042C9.34941 2.56042 10.5604 2.9685 11.6083 3.5506L15.0896 0ZM8 4.1923C5.93813 4.1923 4.26667 5.89706 4.26667 8C4.26667 8.85508 4.54931 9.63886 5.01667 10.2736L6.55938 8.70013C6.45885 8.48838 6.4 8.25177 6.4 8C6.4 7.09866 7.11627 6.36813 8 6.36813C8.24685 6.36813 8.47884 6.42815 8.68646 6.53068L10.2292 4.95724C9.60685 4.48057 8.83838 4.1923 8 4.1923ZM13.3594 4.77769C14.9444 6.13756 15.8533 7.61218 15.8833 7.66109C15.9587 7.75733 15.9999 7.87681 16 8C15.9999 8.10526 15.9699 8.20822 15.9135 8.29641L15.9115 8.2996C15.9023 8.3189 13.3233 13.4396 8 13.4396C7.01333 13.4396 6.12238 13.262 5.32292 12.9753L6.70313 11.5665C7.10793 11.7199 7.54347 11.8077 8 11.8077C10.0619 11.8077 11.7333 10.1029 11.7333 8C11.7333 7.53437 11.6473 7.09015 11.4969 6.67729L13.3594 4.77769Z" fill="#989898"/>
</svg>
