<svg width="12" height="12" viewBox="0 0 12 12" fill="none" xmlns="http://www.w3.org/2000/svg">
<g clip-path="url(#clip0_297_16046)">
<path d="M8.74998 0.958252C8.18695 0.967009 7.63621 1.12418 7.15336 1.41389C6.67051 1.7036 6.27266 2.11559 5.99998 2.60825C5.7273 2.11559 5.32945 1.7036 4.8466 1.41389C4.36375 1.12418 3.813 0.967009 3.24998 0.958252C2.35245 0.997247 1.50683 1.38988 0.897871 2.05037C0.288909 2.71086 -0.0338961 3.58551 -2.08546e-05 4.48325C-2.08546e-05 6.75675 2.39298 9.23975 4.39998 10.9233C4.84809 11.2998 5.41466 11.5063 5.99998 11.5063C6.5853 11.5063 7.15187 11.2998 7.59998 10.9233C9.60698 9.23975 12 6.75675 12 4.48325C12.0339 3.58551 11.711 2.71086 11.1021 2.05037C10.4931 1.38988 9.64751 0.997247 8.74998 0.958252Z" fill="#494949"/>
</g>
<defs>
<clipPath id="clip0_297_16046">
<rect width="12" height="12" fill="white"/>
</clipPath>
</defs>
</svg>
