<svg width="30" height="15" viewBox="0 0 30 15" fill="none" xmlns="http://www.w3.org/2000/svg">
<path d="M10.144 9.608H0.56V8.168H4.464V6.776C2.48 6.488 1.264 5.208 1.264 3.624C1.264 1.832 2.832 0.36 5.312 0.36C7.792 0.36 9.36 1.832 9.36 3.624C9.36 5.208 8.144 6.488 6.16 6.776V8.168H10.144V9.608ZM12.88 11.128H11.184V0.712H12.88V4.472H14.72V5.976H12.88V11.128ZM5.312 5.496C6.672 5.496 7.648 4.68 7.648 3.624C7.648 2.568 6.672 1.752 5.312 1.752C3.952 1.752 2.976 2.568 2.976 3.624C2.976 4.68 3.952 5.496 5.312 5.496ZM13.136 14.744H2.32V10.744H4.08V13.272H13.136V14.744ZM28.8869 14.168H15.2869V12.68H18.5989V9.656H16.7269V4.536H25.5909V2.28H16.6949V0.855999H27.3349V5.944H18.4709V8.28H27.6389V9.656H25.5749V12.68H28.8869V14.168ZM20.2789 12.68H23.8949V9.656H20.2789V12.68Z" fill="#4785FF"/>
</svg>
