<svg width="50" height="50" viewBox="0 0 50 50" fill="none" xmlns="http://www.w3.org/2000/svg">
<g clip-path="url(#clip0_283_6669)">
<circle cx="25" cy="25" r="15" fill="white"/>
<path d="M25 0C20.0555 0 15.222 1.46622 11.1108 4.21326C6.99953 6.9603 3.79521 10.8648 1.90302 15.4329C0.0108322 20.0011 -0.484251 25.0277 0.480379 29.8773C1.44501 34.7268 3.82603 39.1814 7.32234 42.6777C10.8187 46.174 15.2732 48.555 20.1228 49.5196C24.9723 50.4843 29.9989 49.9892 34.5671 48.097C39.1353 46.2048 43.0397 43.0005 45.7867 38.8893C48.5338 34.778 50 29.9445 50 25C49.9928 18.3718 47.3566 12.0171 42.6698 7.33025C37.9829 2.64339 31.6282 0.00716892 25 0ZM33.3333 27.0833L27.0833 27.0833L27.0833 33.3333C27.0833 33.8859 26.8639 34.4158 26.4732 34.8065C26.0824 35.1972 25.5525 35.4167 25 35.4167C24.4475 35.4167 23.9176 35.1972 23.5269 34.8065C23.1362 34.4158 22.9167 33.8859 22.9167 33.3333L22.9167 27.0833H16.6667C16.1141 27.0833 15.5842 26.8638 15.1935 26.4731C14.8028 26.0824 14.5833 25.5525 14.5833 25C14.5833 24.4475 14.8028 23.9176 15.1935 23.5269C15.5842 23.1362 16.1141 22.9167 16.6667 22.9167H22.9167V16.6667C22.9167 16.1141 23.1362 15.5842 23.5269 15.1935C23.9176 14.8028 24.4475 14.5833 25 14.5833C25.5525 14.5833 26.0824 14.8028 26.4732 15.1935C26.8639 15.5842 27.0833 16.1141 27.0833 16.6667V22.9167L33.3333 22.9167C33.8859 22.9167 34.4158 23.1362 34.8065 23.5269C35.1972 23.9176 35.4167 24.4475 35.4167 25C35.4167 25.5525 35.1972 26.0824 34.8065 26.4731C34.4158 26.8638 33.8859 27.0833 33.3333 27.0833Z" fill="#4785FF"/>
</g>
<defs>
<clipPath id="clip0_283_6669">
<rect width="50" height="50" fill="white"/>
</clipPath>
</defs>
</svg>
