<svg width="24" height="24" viewBox="0 0 24 24" fill="none" xmlns="http://www.w3.org/2000/svg">
<g id="isActive=true" clip-path="url(#clip0_275_14672)">
<path id="Vector" d="M2.84917 23.55C3.39522 23.7834 3.99892 23.8467 4.58153 23.7319C5.16413 23.617 5.69859 23.3292 6.11517 22.906L12.0002 17.053L17.8852 22.906C18.1596 23.1844 18.4865 23.4056 18.8469 23.5568C19.2074 23.7081 19.5943 23.7863 19.9852 23.787C20.387 23.7858 20.7846 23.7053 21.1552 23.55C21.7057 23.3272 22.1762 22.9436 22.5054 22.4493C22.8345 21.9549 23.0069 21.3728 23.0002 20.779V5C22.9986 3.67441 22.4713 2.40356 21.534 1.46622C20.5966 0.528882 19.3258 0.00158786 18.0002 0L6.00017 0C4.67458 0.00158786 3.40373 0.528882 2.46639 1.46622C1.52906 2.40356 1.00176 3.67441 1.00017 5V20.779C0.993721 21.3733 1.16675 21.9557 1.49664 22.4501C1.82652 22.9445 2.29792 23.3278 2.84917 23.55Z" fill="#494949"/>
</g>
<defs>
<clipPath id="clip0_275_14672">
<rect width="24" height="24" fill="white"/>
</clipPath>
</defs>
</svg>
