<svg width="22" height="24" viewBox="0 0 22 24" fill="none" xmlns="http://www.w3.org/2000/svg">
<g id="Vector">
<path id="Vector_2" d="M19.1371 24C18.7672 23.999 18.4011 23.9247 18.0601 23.7813C17.719 23.638 17.4097 23.4285 17.1501 23.165L11.0001 17.051L4.85012 23.169C4.45515 23.5697 3.94861 23.8422 3.39654 23.9508C2.84447 24.0594 2.27247 23.9992 1.75512 23.778C1.23264 23.5678 0.785669 23.205 0.472582 22.7369C0.159494 22.2688 -0.00515925 21.7171 0.000123236 21.154V5C0.000123236 3.67392 0.526908 2.40215 1.46459 1.46447C2.40227 0.526784 3.67404 0 5.00012 0L17.0001 0C17.6567 0 18.3069 0.129329 18.9135 0.380602C19.5202 0.631876 20.0714 1.00017 20.5357 1.46447C21 1.92876 21.3683 2.47996 21.6195 3.08658C21.8708 3.69321 22.0001 4.34339 22.0001 5V21.154C22.0057 21.7167 21.8417 22.268 21.5293 22.7361C21.217 23.2041 20.7709 23.5672 20.2491 23.778C19.8969 23.9253 19.5189 24.0008 19.1371 24ZM5.00012 2C4.20447 2 3.44141 2.31607 2.8788 2.87868C2.31619 3.44129 2.00012 4.20435 2.00012 5V21.154C1.99976 21.3206 2.04879 21.4836 2.14102 21.6224C2.23325 21.7612 2.36455 21.8695 2.51831 21.9337C2.67208 21.9979 2.84143 22.0151 3.00496 21.9831C3.1685 21.9512 3.31888 21.8714 3.43712 21.754L10.3001 14.933C10.4875 14.7468 10.7409 14.6422 11.0051 14.6422C11.2693 14.6422 11.5228 14.7468 11.7101 14.933L18.5651 21.752C18.6834 21.8694 18.8338 21.9492 18.9973 21.9811C19.1608 22.0131 19.3302 21.9959 19.4839 21.9317C19.6377 21.8675 19.769 21.7592 19.8612 21.6204C19.9535 21.4816 20.0025 21.3186 20.0021 21.152V5C20.0021 4.20435 19.6861 3.44129 19.1234 2.87868C18.5608 2.31607 17.7978 2 17.0021 2H5.00012Z" fill="#494949"/>
</g>
</svg>
