<svg width="24" height="24" viewBox="0 0 24 24" fill="none" xmlns="http://www.w3.org/2000/svg">
<path d="M5.2897 15.7916C5.38266 15.8853 5.49326 15.9597 5.61512 16.0105C5.73698 16.0613 5.86768 16.0874 5.99969 16.0874C6.13171 16.0874 6.26241 16.0613 6.38427 16.0105C6.50613 15.9597 6.61673 15.8853 6.70969 15.7916L11.2897 11.2116C11.3827 11.1179 11.4933 11.0435 11.6151 10.9927C11.737 10.942 11.8677 10.9158 11.9997 10.9158C12.1317 10.9158 12.2624 10.942 12.3843 10.9927C12.5061 11.0435 12.6167 11.1179 12.7097 11.2116L17.2897 15.7916C17.3827 15.8853 17.4933 15.9597 17.6151 16.0105C17.737 16.0613 17.8677 16.0874 17.9997 16.0874C18.1317 16.0874 18.2624 16.0613 18.3843 16.0105C18.5061 15.9597 18.6167 15.8853 18.7097 15.7916C18.8959 15.6042 19.0005 15.3508 19.0005 15.0866C19.0005 14.8224 18.8959 14.569 18.7097 14.3816L14.1197 9.79162C13.5572 9.22982 12.7947 8.91426 11.9997 8.91426C11.2047 8.91426 10.4422 9.22982 9.87969 9.79162L5.2897 14.3816C5.10344 14.569 4.9989 14.8224 4.9989 15.0866C4.9989 15.3508 5.10344 15.6042 5.2897 15.7916V15.7916Z" fill="#494949"/>
</svg>
