<svg width="24" height="24" viewBox="0 0 24 24" fill="none" xmlns="http://www.w3.org/2000/svg">
<path d="M18.7098 9.20986C18.6169 9.11613 18.5063 9.04174 18.3844 8.99097C18.2625 8.9402 18.1318 8.91406 17.9998 8.91406C17.8678 8.91406 17.7371 8.9402 17.6152 8.99097C17.4934 9.04174 17.3828 9.11613 17.2898 9.20986L12.7098 13.7899C12.6169 13.8836 12.5063 13.958 12.3844 14.0087C12.2625 14.0595 12.1318 14.0856 11.9998 14.0856C11.8678 14.0856 11.7371 14.0595 11.6152 14.0087C11.4934 13.958 11.3828 13.8836 11.2898 13.7899L6.70982 9.20986C6.61685 9.11613 6.50625 9.04174 6.38439 8.99097C6.26253 8.9402 6.13183 8.91406 5.99982 8.91406C5.8678 8.91406 5.7371 8.9402 5.61524 8.99097C5.49338 9.04174 5.38278 9.11613 5.28982 9.20986C5.10356 9.39722 4.99902 9.65067 4.99902 9.91486C4.99902 10.179 5.10356 10.4325 5.28982 10.6199L9.87982 15.2098C10.4423 15.7716 11.2048 16.0872 11.9998 16.0872C12.7948 16.0872 13.5573 15.7716 14.1198 15.2098L18.7098 10.6199C18.8961 10.4325 19.0006 10.179 19.0006 9.91486C19.0006 9.65067 18.8961 9.39722 18.7098 9.20986V9.20986Z" fill="#989898"/>
</svg>
