<svg width="12" height="12" viewBox="0 0 12 12" fill="none" xmlns="http://www.w3.org/2000/svg">
<g clip-path="url(#clip0_276_3191)">
<path d="M12.0001 5.62354C11.9278 4.45355 11.5147 3.33029 10.8117 2.39225C10.1087 1.45421 9.14658 0.742384 8.04393 0.344535C6.94129 -0.0533137 5.74633 -0.119796 4.60636 0.153285C3.46639 0.426366 2.43125 1.02707 1.62855 1.88135C0.825857 2.73562 0.290696 3.80612 0.089047 4.96087C-0.112602 6.11561 0.0280743 7.30413 0.493734 8.37989C0.959394 9.45566 1.72968 10.3716 2.70963 11.0149C3.68958 11.6582 4.83635 12.0006 6.00858 12H9.50008C10.1629 11.9994 10.7984 11.7358 11.2671 11.2671C11.7358 10.7984 11.9994 10.1629 12.0001 9.50004V5.62354ZM11.0001 9.50004C11.0001 9.89786 10.842 10.2794 10.5607 10.5607C10.2794 10.842 9.8979 11 9.50008 11H6.00858C5.30304 10.9997 4.6055 10.8507 3.96142 10.5627C3.31735 10.2747 2.74121 9.85416 2.27058 9.32854C1.79766 8.80317 1.44254 8.18277 1.22902 7.50893C1.0155 6.83509 0.948525 6.12338 1.03258 5.42154C1.16529 4.31451 1.66267 3.28313 2.4463 2.49C3.22992 1.69687 4.25523 1.18709 5.36058 1.04104C5.57619 1.01401 5.79327 1.00032 6.01058 1.00004C7.17581 0.996859 8.30498 1.40399 9.20008 2.15004C9.72284 2.58451 10.1519 3.12061 10.4613 3.72585C10.7708 4.33109 10.954 4.99286 11.0001 5.67104V9.50004Z" fill="#494949"/>
<path d="M4 4.5H6C6.13261 4.5 6.25979 4.44732 6.35355 4.35355C6.44732 4.25978 6.5 4.13261 6.5 4C6.5 3.86739 6.44732 3.74021 6.35355 3.64645C6.25979 3.55268 6.13261 3.5 6 3.5H4C3.86739 3.5 3.74021 3.55268 3.64645 3.64645C3.55268 3.74021 3.5 3.86739 3.5 4C3.5 4.13261 3.55268 4.25978 3.64645 4.35355C3.74021 4.44732 3.86739 4.5 4 4.5Z" fill="#494949"/>
<path d="M8 5.5H4C3.86739 5.5 3.74021 5.55268 3.64645 5.64645C3.55268 5.74022 3.5 5.86739 3.5 6C3.5 6.13261 3.55268 6.25979 3.64645 6.35356C3.74021 6.44733 3.86739 6.50001 4 6.50001H8C8.13261 6.50001 8.25979 6.44733 8.35355 6.35356C8.44732 6.25979 8.5 6.13261 8.5 6C8.5 5.86739 8.44732 5.74022 8.35355 5.64645C8.25979 5.55268 8.13261 5.5 8 5.5Z" fill="#494949"/>
<path d="M8 7.5H4C3.86739 7.5 3.74021 7.55268 3.64645 7.64645C3.55268 7.74022 3.5 7.86739 3.5 8C3.5 8.13261 3.55268 8.25979 3.64645 8.35356C3.74021 8.44733 3.86739 8.50001 4 8.50001H8C8.13261 8.50001 8.25979 8.44733 8.35355 8.35356C8.44732 8.25979 8.5 8.13261 8.5 8C8.5 7.86739 8.44732 7.74022 8.35355 7.64645C8.25979 7.55268 8.13261 7.5 8 7.5Z" fill="#494949"/>
</g>
<defs>
<clipPath id="clip0_276_3191">
<rect width="12" height="12" fill="white"/>
</clipPath>
</defs>
</svg>
