<svg width="30" height="9" viewBox="0 0 30 9" fill="none" xmlns="http://www.w3.org/2000/svg">
<path d="M5.05234 6.418H7.60632V5.18164H1.07331V6.418H3.59028C3.3867 6.89073 2.47985 7.43618 0.962272 7.67255L0.72168 7.70891L1.11033 8.96346L1.2954 8.92709C2.68343 8.67255 3.75684 8.218 4.38608 7.618L7.36572 8.99982L7.88392 7.78164L5.01532 6.58164C5.01532 6.58164 5.03383 6.49073 5.03383 6.43618L5.05234 6.418Z" fill="#4785FF"/>
<path d="M7.49541 0.381836H6.08887V5.05456H7.49541V3.10911H8.69837V1.87274H7.49541V0.381836Z" fill="#4785FF"/>
<path d="M3.01666 3.69091L5.12646 5.12727L5.81123 4L3.59038 2.63636C3.6459 2.45454 3.68291 2.27273 3.68291 2.09091H5.51511V0.890909H3.70142V0H2.29488V0.890909H0.44417V2.09091H2.29488C2.20234 2.85454 1.38803 3.58182 0.222085 3.92727L0 4L0.592227 5.2L0.758791 5.14545C1.70265 4.83636 2.47995 4.30909 3.01666 3.67273V3.69091Z" fill="#4785FF"/>
<path d="M11.9369 0.891113C10.2527 0.891113 9.03125 2.09111 9.03125 3.72748C9.03125 5.36384 10.2527 6.56384 11.9369 6.56384C13.621 6.56384 14.8425 5.36384 14.8425 3.72748C14.8425 2.09111 13.621 0.891113 11.9369 0.891113ZM11.9369 5.29111C11.0485 5.29111 10.4378 4.65475 10.4378 3.72748C10.4378 2.8002 11.0485 2.16384 11.9369 2.16384C12.8252 2.16384 13.4359 2.8002 13.4359 3.72748C13.4359 4.65475 12.8252 5.29111 11.9369 5.29111Z" fill="#4785FF"/>
<path d="M16.6747 0.381836H15.3052V8.85456H16.6747V4.45456H17.9702V3.18184H16.6747V0.381836Z" fill="#4785FF"/>
<path d="M18.6366 3.4545L18.4146 3.52723L19.0253 4.81814L19.1918 4.76359C20.1172 4.43632 20.876 3.99996 21.3757 3.4545L23.504 4.74541L24.2443 3.54541L22.0419 2.30905C22.0975 2.14541 22.116 1.98177 22.1345 1.79996H23.9852V0.54541H18.8587V1.79996H20.7094C20.5984 2.38177 19.9506 3.09087 18.6181 3.47268L18.6366 3.4545Z" fill="#4785FF"/>
<path d="M24.6886 6.47274H22.8193V7.70911H24.6886V8.85456H26.0951V0.381836H24.6886V6.47274Z" fill="#4785FF"/>
<path d="M24.2626 4.89111H18.3403V6.12747H20.6167V8.87293H22.0417V6.12747H24.2626V4.89111Z" fill="#4785FF"/>
<path d="M27.9269 6.80013C27.4642 6.70922 27.0015 6.98195 26.8905 7.4365C26.7979 7.89104 27.094 8.3274 27.5567 8.4365C28.0194 8.5274 28.4821 8.25468 28.5931 7.80013C28.6856 7.34559 28.3895 6.90922 27.9269 6.80013Z" fill="#4785FF"/>
<path d="M28.5194 0.509277L27.5386 5.92746L28.6305 6.14564L30 0.818368L28.5194 0.509277Z" fill="#4785FF"/>
</svg>
