<svg width="76" height="23" viewBox="0 0 76 23" fill="none" xmlns="http://www.w3.org/2000/svg">
<path d="M12.7996 16.4023H19.2697V13.2427H2.71942V16.4023H9.09573C8.58 17.6103 6.28265 19.0043 2.43811 19.6083L1.82861 19.7013L2.81319 22.9073L3.28204 22.8144C6.79838 22.1639 9.51769 21.0023 11.1118 19.4689L18.6602 23.0002L19.973 19.8871L12.7058 16.8204C12.7058 16.8204 12.7527 16.5881 12.7527 16.4487L12.7996 16.4023Z" fill="#494949"/>
<path d="M18.988 0.975586H15.4248V12.917H18.988V7.94528H22.0355V4.78568H18.988V0.975586Z" fill="#494949"/>
<path d="M7.64219 9.43232L12.987 13.103L14.7218 10.2222L9.09562 6.73737C9.23627 6.27272 9.33004 5.80808 9.33004 5.34343H13.9716V2.27677H9.37693V0H5.81369V2.27677H1.12523V5.34343H5.81369C5.57927 7.29495 3.51635 9.15353 0.562616 10.0364L0 10.2222L1.50031 13.2889L1.92227 13.1495C4.31339 12.3596 6.28254 11.0121 7.64219 9.38586V9.43232Z" fill="#494949"/>
<path d="M30.2403 2.27686C25.9738 2.27686 22.8794 5.34352 22.8794 9.52534C22.8794 13.7072 25.9738 16.7738 30.2403 16.7738C34.5068 16.7738 37.6012 13.7072 37.6012 9.52534C37.6012 5.34352 34.5068 2.27686 30.2403 2.27686ZM30.2403 13.5213C27.9898 13.5213 26.4426 11.895 26.4426 9.52534C26.4426 7.15564 27.9898 5.52938 30.2403 5.52938C32.4907 5.52938 34.0379 7.15564 34.0379 9.52534C34.0379 11.895 32.4907 13.5213 30.2403 13.5213Z" fill="#494949"/>
<path d="M42.2429 0.975586H38.7734V22.6281H42.2429V11.3837H45.5248V8.13114H42.2429V0.975586Z" fill="#494949"/>
<path d="M47.2125 8.82839L46.6499 9.01425L48.1971 12.3132L48.6191 12.1738C50.9633 11.3375 52.8856 10.2223 54.1514 8.82839L59.5432 12.1274L61.4186 9.06071L55.8393 5.90112C55.9799 5.48294 56.0268 5.06475 56.0737 4.60011H60.7622V1.39404H47.7751V4.60011H52.4636C52.1823 6.08697 50.5413 7.8991 47.1656 8.87485L47.2125 8.82839Z" fill="#494949"/>
<path d="M62.5439 16.5412H57.8086V19.7008H62.5439V22.6281H66.1072V0.975586H62.5439V16.5412Z" fill="#494949"/>
<path d="M61.466 12.499H46.4629V15.6586H52.2297V22.6748H55.8398V15.6586H61.466V12.499Z" fill="#494949"/>
<path d="M70.7485 17.378C69.5764 17.1457 68.4042 17.8427 68.1229 19.0043C67.8885 20.1659 68.6387 21.281 69.8108 21.5598C70.9829 21.7921 72.155 21.0952 72.4363 19.9336C72.6707 18.7719 71.9206 17.6568 70.7485 17.378Z" fill="#494949"/>
<path d="M72.249 1.30078L69.7642 15.1473L72.5304 15.7048L75.9998 2.09068L72.249 1.30078Z" fill="#494949"/>
</svg>
