<svg width="26" height="20" viewBox="0 0 26 20" fill="none" xmlns="http://www.w3.org/2000/svg">
<g clip-path="url(#clip0_246_10136)">
<path d="M10.9708 13.9342H16.5164V11.25H2.33091V13.9342H7.79613C7.35409 14.9605 5.385 16.1447 2.08979 16.6579L1.56738 16.7368L2.41128 19.4605L2.81313 19.3816C5.82704 18.8289 8.1578 17.8421 9.52411 16.5395L15.994 19.5395L17.1192 16.8947L10.8904 14.2895C10.8904 14.2895 10.9306 14.0921 10.9306 13.9737L10.9708 13.9342Z" fill="#4785FF"/>
<path d="M16.2753 0.789551H13.2212V10.9343H16.2753V6.7106H18.8873V4.02639H16.2753V0.789551Z" fill="#4785FF"/>
<path d="M6.55023 7.97368L11.1314 11.0921L12.6182 8.64474L7.79598 5.68421C7.91654 5.28947 7.99691 4.89474 7.99691 4.5H11.9753V1.93421H8.03709V0H4.983V1.93421H0.964451V4.53947H4.983C4.78207 6.19737 3.01391 7.77632 0.482226 8.52632L0 8.68421L1.28594 11.2895L1.6476 11.1711C3.69706 10.5 5.38485 9.35526 6.55023 7.97368Z" fill="#4785FF"/>
<path d="M21.499 14.8816C20.4944 14.6842 19.4898 15.2763 19.2487 16.2631C19.0477 17.25 19.6907 18.1974 20.6953 18.4342C21.7 18.6316 22.7046 18.0395 22.9457 17.0526C23.1466 16.0658 22.5037 15.1184 21.499 14.8816Z" fill="#4785FF"/>
<path d="M22.7851 1.22363L20.6553 12.9868L23.0262 13.4999L25.9999 1.89469L22.7851 1.22363Z" fill="#4785FF"/>
</g>
<defs>
<clipPath id="clip0_246_10136">
<rect width="26" height="19.5" fill="white"/>
</clipPath>
</defs>
</svg>
