<svg width="24" height="24" viewBox="0 0 24 24" fill="none" xmlns="http://www.w3.org/2000/svg">
<g clip-path="url(#clip0_279_3487)">
<path d="M19 1.99936H16.461C15.7695 1.21117 14.8807 0.621297 13.8858 0.290365C12.8909 -0.0405678 11.8258 -0.100627 10.8 0.116358C9.55068 0.371128 8.42128 1.03343 7.589 1.99936H5C3.67441 2.00095 2.40356 2.52824 1.46622 3.46558C0.528882 4.40292 0.00158786 5.67376 0 6.99936L0 18.9994C0.00158786 20.325 0.528882 21.5958 1.46622 22.5331C2.40356 23.4705 3.67441 23.9978 5 23.9994H19C20.3256 23.9978 21.5964 23.4705 22.5338 22.5331C23.4711 21.5958 23.9984 20.325 24 18.9994V6.99936C23.9984 5.67376 23.4711 4.40292 22.5338 3.46558C21.5964 2.52824 20.3256 2.00095 19 1.99936ZM12 1.99936C13.0609 1.99936 14.0783 2.42079 14.8284 3.17093C15.5786 3.92108 16 4.93849 16 5.99936C16 6.26457 15.8946 6.51893 15.7071 6.70646C15.5196 6.894 15.2652 6.99936 15 6.99936H12.868L13.832 5.55436C13.9792 5.3337 14.0327 5.0636 13.9808 4.80349C13.9288 4.54338 13.7757 4.31455 13.555 4.16736C13.3343 4.02016 13.0642 3.96665 12.8041 4.0186C12.544 4.07055 12.3152 4.2237 12.168 4.44436L10.465 6.99936H9C8.73478 6.99936 8.48043 6.894 8.29289 6.70646C8.10536 6.51893 8 6.26457 8 5.99936C8 4.93849 8.42143 3.92108 9.17157 3.17093C9.92172 2.42079 10.9391 1.99936 12 1.99936ZM22 18.9994C22 19.795 21.6839 20.5581 21.1213 21.1207C20.5587 21.6833 19.7956 21.9994 19 21.9994H5C4.20435 21.9994 3.44129 21.6833 2.87868 21.1207C2.31607 20.5581 2 19.795 2 18.9994V6.99936C2 6.20371 2.31607 5.44065 2.87868 4.87804C3.44129 4.31543 4.20435 3.99936 5 3.99936H6.393C6.1339 4.70914 6.0009 5.45876 6 6.21436C6.00079 6.95274 6.29447 7.66066 6.81658 8.18277C7.3387 8.70489 8.04662 8.99856 8.785 8.99936H15.215C15.932 9.00595 16.6235 8.73345 17.1432 8.23947C17.6629 7.7455 17.9702 7.06877 18 6.35236C18.01 5.5548 17.8939 4.76066 17.656 3.99936H19C19.7956 3.99936 20.5587 4.31543 21.1213 4.87804C21.6839 5.44065 22 6.20371 22 6.99936V18.9994Z" fill="#494949"/>
</g>
<defs>
<clipPath id="clip0_279_3487">
<rect width="24" height="24" fill="white"/>
</clipPath>
</defs>
</svg>
