<svg width="24" height="25" viewBox="0 0 24 25" fill="none" xmlns="http://www.w3.org/2000/svg">
<path d="M21 8.99972H17C16.2044 8.99972 15.4413 9.31579 14.8787 9.8784C14.3161 10.441 14 11.2041 14 11.9997V16.9997H12V12.9997C11.9994 11.9263 11.7108 10.8726 11.1643 9.94867C10.6178 9.02472 9.83344 8.26431 8.893 7.74672C9.43391 7.18023 9.7966 6.4674 9.93607 5.69666C10.0755 4.92592 9.98567 4.13119 9.67759 3.41106C9.36952 2.69094 8.8568 2.07711 8.20304 1.64572C7.54928 1.21433 6.78326 0.984375 6 0.984375C5.21674 0.984375 4.45072 1.21433 3.79696 1.64572C3.1432 2.07711 2.63048 2.69094 2.32241 3.41106C2.01433 4.13119 1.92445 4.92592 2.06393 5.69666C2.2034 6.4674 2.56609 7.18023 3.107 7.74672C2.16656 8.26431 1.3822 9.02472 0.835712 9.94867C0.289224 10.8726 0.000622181 11.9263 0 12.9997L0 21.9997C0 22.2649 0.105357 22.5193 0.292893 22.7068C0.48043 22.8944 0.734784 22.9997 1 22.9997C1.26522 22.9997 1.51957 22.8944 1.70711 22.7068C1.89464 22.5193 2 22.2649 2 21.9997V18.9997H22V21.9997C22 22.2649 22.1054 22.5193 22.2929 22.7068C22.4804 22.8944 22.7348 22.9997 23 22.9997C23.2652 22.9997 23.5196 22.8944 23.7071 22.7068C23.8946 22.5193 24 22.2649 24 21.9997V11.9997C24 11.2041 23.6839 10.441 23.1213 9.8784C22.5587 9.31579 21.7956 8.99972 21 8.99972ZM4 4.99972C4 4.60416 4.1173 4.21748 4.33706 3.88858C4.55682 3.55968 4.86918 3.30334 5.23463 3.15196C5.60009 3.00059 6.00222 2.96098 6.39018 3.03815C6.77814 3.11532 7.13451 3.3058 7.41421 3.58551C7.69392 3.86521 7.8844 4.22158 7.96157 4.60954C8.03874 4.9975 7.99913 5.39964 7.84776 5.76509C7.69638 6.13054 7.44004 6.4429 7.11114 6.66266C6.78224 6.88242 6.39556 6.99972 6 6.99972C5.46957 6.99972 4.96086 6.78901 4.58579 6.41393C4.21071 6.03886 4 5.53015 4 4.99972ZM6 8.99972C7.06087 8.99972 8.07828 9.42115 8.82843 10.1713C9.57857 10.9214 10 11.9389 10 12.9997V16.9997H2V12.9997C2 11.9389 2.42143 10.9214 3.17157 10.1713C3.92172 9.42115 4.93913 8.99972 6 8.99972ZM16 16.9997V11.9997C16 11.7345 16.1054 11.4802 16.2929 11.2926C16.4804 11.1051 16.7348 10.9997 17 10.9997H18V11.9997C18 12.2649 18.1054 12.5193 18.2929 12.7068C18.4804 12.8944 18.7348 12.9997 19 12.9997C19.2652 12.9997 19.5196 12.8944 19.7071 12.7068C19.8946 12.5193 20 12.2649 20 11.9997V10.9997H21C21.2652 10.9997 21.5196 11.1051 21.7071 11.2926C21.8946 11.4802 22 11.7345 22 11.9997V16.9997H16Z" fill="#494949"/>
</svg>
