<svg width="512" height="512" viewBox="0 0 512 512" fill="none" xmlns="http://www.w3.org/2000/svg">
<rect width="512" height="512" rx="256" fill="#4785FF"/>
<path fill-rule="evenodd" clip-rule="evenodd" d="M270.083 235.052L335.625 120L375.5 142.46L354.416 180.047L392 201.591L369.083 241.469L331.5 219.926L309.958 257.513L270.083 235.052ZM95.9167 252.471L130.75 282.265L166.958 240.095L203.167 282.265L238 252.471L205.917 214.884L249.917 198.841L233.875 155.754L190.333 171.797V125.042L144.5 124.584V171.797L100.042 155.754L84 198.841L128 214.884L95.9167 252.471ZM234.791 337.728L285.207 332.227L237.999 392.733L274.207 421.152L306.749 378.982L356.707 407.859L379.624 367.981L334.707 342.77L360.374 309.767L324.166 281.348L229.749 291.89L234.791 337.728Z" fill="white"/>
</svg>
