<svg width="120" height="120" viewBox="0 0 120 120" fill="none" xmlns="http://www.w3.org/2000/svg">
<g clip-path="url(#clip0_1109_3968)">
<path d="M120 0H0V120H120V0Z" fill="#F1F8FF"/>
<path d="M60.1929 60.0467L60.0642 105.309L20.6743 82.5668L20.8018 37.3045L60.1929 60.0467Z" fill="#9FC7F7"/>
<path d="M60.1927 60.0467L99.3238 37.3058L99.1963 82.568L60.064 105.309L60.1927 60.0467Z" fill="#7FAADD"/>
<path d="M20.8032 37.3045L59.9356 14.691L99.3255 37.307L60.1944 60.0467L20.8032 37.3045Z" fill="#C3DCFC"/>
<g style="mix-blend-mode:soft-light">
<path d="M85.6833 45.2319L85.7477 65.3371L76.3622 70.7967L76.2979 50.6915L85.6833 45.2319Z" fill="url(#paint0_radial_1109_3968)"/>
</g>
<g style="mix-blend-mode:soft-light">
<path d="M85.6834 45.2357L76.2942 50.6928L36.9106 27.9544L46.2999 22.4973L85.6834 45.2357Z" fill="url(#paint1_radial_1109_3968)"/>
</g>
<g style="mix-blend-mode:soft-light">
<path d="M35.2592 73.8794L35.1948 91.2062L44.5815 96.4146L44.6447 79.3402L35.2592 73.8794Z" fill="url(#paint2_radial_1109_3968)"/>
</g>
<g style="mix-blend-mode:soft-light">
<path d="M35.3857 45.8732L35.3213 59.9154L44.708 65.1238L44.7711 51.3341L35.3857 45.8732Z" fill="url(#paint3_radial_1109_3968)"/>
</g>
<g style="mix-blend-mode:soft-light">
<path d="M35.459 45.8669L44.8482 51.324L84.2318 28.5855L74.8425 23.1285L35.459 45.8669Z" fill="url(#paint4_radial_1109_3968)"/>
</g>
<g style="mix-blend-mode:multiply" opacity="0.41">
<path d="M89.757 78.0539L82.9758 81.9697C82.8912 82.0189 82.8218 82.1376 82.8218 82.2348L82.8432 90.0284C82.8432 90.1256 82.9127 90.1647 82.9985 90.1155L89.7798 86.1997C89.8643 86.1505 89.9338 86.0306 89.9338 85.9347L89.911 78.141C89.911 78.0438 89.8416 78.0047 89.7558 78.0539H89.757ZM83.1513 89.6737L83.1298 82.2348L89.603 78.497L89.6245 85.9359L83.1513 89.6737Z" fill="#4173A5"/>
<path d="M86.5345 82.2183C86.604 82.1779 86.6595 82.082 86.6595 82.0025L86.6557 80.8651C86.6557 80.7856 86.6002 80.754 86.5307 80.7932C86.4613 80.8336 86.4058 80.9295 86.4058 81.009L86.4096 82.1464C86.4096 82.2246 86.4664 82.2575 86.5358 82.2171L86.5345 82.2183Z" fill="#4173A5"/>
<path d="M84.5197 84.2053C84.5891 84.1649 84.6446 84.0677 84.6446 83.9881L84.6409 82.4569C84.6409 82.3774 84.584 82.3458 84.5146 82.3862C84.4452 82.4266 84.3896 82.5226 84.3896 82.6021L84.3934 84.1333C84.3934 84.2128 84.4502 84.2456 84.5197 84.2053Z" fill="#4173A5"/>
<path d="M88.549 81.8788C88.6184 81.8384 88.6739 81.7412 88.6739 81.6616L88.6701 80.1304C88.6701 80.0509 88.6133 80.0193 88.5439 80.0597C88.4745 80.1001 88.4189 80.1961 88.4189 80.2756L88.4227 81.8068C88.4227 81.8863 88.4795 81.9191 88.549 81.8788Z" fill="#4173A5"/>
<path d="M88.6675 83.2711C88.6562 83.16 88.636 83.0527 88.6095 82.953C88.5565 82.7523 88.4731 82.5794 88.3621 82.4392C88.1702 82.1944 87.8975 82.0542 87.5769 82.034C87.2588 82.0138 86.8977 82.1161 86.5304 82.3269C86.1555 82.544 85.7856 82.8697 85.4625 83.2699C85.1469 83.6612 84.8818 84.1118 84.695 84.5764C84.5006 85.0624 84.3933 85.5572 84.3945 85.9687C84.3945 85.9851 84.3945 86.0041 84.3996 86.023C84.4122 86.0697 84.4438 86.0912 84.4854 86.0811C84.5044 86.076 84.5246 86.0659 84.5448 86.0546C84.5574 86.047 84.5687 86.0407 84.5801 86.0331C84.5915 86.0268 84.6028 86.0192 84.6129 86.0129C84.6218 86.0079 84.6306 86.0041 84.6394 85.9978C84.6483 85.9927 84.6571 85.9877 84.6672 85.9814L86.4155 84.9715L86.4219 87.12C86.4219 87.1982 86.4787 87.2285 86.5481 87.1881L87.2146 86.8031C87.284 86.7627 87.3396 86.6681 87.3396 86.5898C87.3396 86.5128 87.2828 86.4812 87.2133 86.5216L86.6718 86.8347L86.6655 84.8276L88.4239 83.8114C88.4656 83.7887 88.5072 83.7634 88.5539 83.7382C88.6208 83.699 88.6625 83.6296 88.6764 83.5324C88.6877 83.4542 88.6776 83.3772 88.6701 83.3153C88.6675 83.2989 88.6663 83.285 88.665 83.2699L88.6675 83.2711ZM84.6558 85.6999C84.7177 84.536 85.5332 83.1916 86.5329 82.6147C87.5327 82.0378 88.352 82.438 88.4201 83.5261L84.6558 85.6999Z" fill="#4173A5"/>
<path d="M92.9179 81.952C92.8952 81.9394 92.8649 81.9419 92.8333 81.9608C92.8005 81.9798 92.7702 82.0126 92.7475 82.0504L91.6127 84.0172C91.566 84.0979 91.566 84.1863 91.6127 84.2141C91.6354 84.2267 91.6669 84.2229 91.6972 84.2052C91.7275 84.1876 91.7591 84.156 91.7818 84.1156L92.9179 82.1489C92.9646 82.0669 92.9646 81.9798 92.9179 81.952Z" fill="#4173A5"/>
<path d="M97.6857 73.6534C97.6857 73.5562 97.6163 73.5171 97.5305 73.5663L90.7492 77.482C90.6646 77.5313 90.5952 77.6499 90.5952 77.7471L90.6179 85.5408C90.6179 85.638 90.6874 85.6771 90.7732 85.6279L97.5545 81.7121C97.639 81.6629 97.7085 81.543 97.7085 81.447L97.6857 73.6534ZM90.9259 85.1848L90.9045 77.7459L97.3777 74.0081L97.3992 81.447L90.9259 85.1848Z" fill="#4173A5"/>
<path d="M96.6823 79.6697L95.5146 78.3783L96.6848 76.3523C96.7075 76.3144 96.7189 76.2727 96.7189 76.2374L96.7164 75.485C96.7164 75.4497 96.7038 75.4232 96.6823 75.4118C96.6596 75.3992 96.6318 75.4017 96.6002 75.4194L95.9464 75.7968C95.9148 75.8145 95.8858 75.8473 95.8643 75.8839L94.6941 77.91L92.9836 77.5603C92.9268 77.5489 92.8625 77.5641 92.7943 77.6032L92.1896 77.9529C92.1429 77.9807 92.1013 78.0362 92.0823 78.0968C92.0647 78.1574 92.0748 78.2092 92.1076 78.2268L93.9266 79.2632L92.1631 82.3117L91.7264 82.5642C91.6595 82.6021 91.6064 82.6967 91.6064 82.7725C91.6064 82.8495 91.6607 82.8798 91.7276 82.8407L92.1619 82.5907C92.2313 82.5503 92.2982 82.4809 92.3462 82.3963L94.1362 79.296C94.1715 79.2354 94.1904 79.1698 94.1904 79.113C94.1904 79.0549 94.1702 79.012 94.1349 78.9918L92.4926 78.0564L92.8259 77.8658L94.5199 78.2117C94.5704 78.2218 94.6285 78.2079 94.6853 78.1751C94.761 78.1309 94.8368 78.0539 94.8948 77.9542L96.0019 76.043L96.4727 75.7716L96.4702 76.3257L95.372 78.2268C95.2723 78.3998 95.2584 78.5891 95.3379 78.6787L96.4955 79.9651V80.34L94.8544 79.4046C94.8191 79.3844 94.7699 79.392 94.7206 79.4197C94.6714 79.4475 94.6234 79.4967 94.5881 79.5586L92.7994 82.6589C92.7501 82.7422 92.7223 82.8356 92.7236 82.9151V83.4125C92.7249 83.4895 92.7792 83.5211 92.8461 83.4819C92.913 83.4441 92.9672 83.3494 92.9672 83.2724L92.9698 82.7586L94.7244 79.7189L96.5434 80.7553C96.5662 80.7679 96.5965 80.7641 96.6268 80.7464C96.6419 80.7376 96.6558 80.7262 96.6709 80.7111C96.7138 80.6644 96.7416 80.6013 96.7416 80.547L96.7391 79.8514C96.7391 79.7744 96.7189 79.7113 96.681 79.6684L96.6823 79.6697Z" fill="#4173A5"/>
</g>
<path d="M40.69 58.786C39.6309 57.9769 38.5402 57.4252 37.4963 57.1664C36.4548 56.9089 35.4854 56.9506 34.6573 57.2889C33.8304 57.6259 33.1652 58.2495 32.7057 59.1142C32.2475 59.9764 32.0064 61.0582 32.0001 62.2827C31.9963 62.8356 32.1831 63.4718 32.5201 64.0525C32.8559 64.6332 33.3154 65.1091 33.7951 65.3779C34.276 65.6468 34.7381 65.6859 35.0814 65.4852C35.4248 65.2845 35.6217 64.8604 35.6267 64.3062C35.6318 63.6915 35.7555 63.1486 35.9878 62.7169C36.2213 62.2852 36.5583 61.9759 36.9749 61.8118C37.3927 61.6465 37.88 61.6313 38.4039 61.7664C38.9277 61.9015 39.4731 62.183 40.0033 62.592C40.7266 63.1562 41.3893 63.9326 41.9056 64.8212C42.4219 65.7099 42.7678 66.6706 42.899 67.5794C43.0316 68.5287 42.9192 69.3707 42.5772 69.9842C42.2363 70.5964 41.6859 70.9499 41.0043 70.9953C39.877 71.1051 38.9429 71.6517 38.2991 72.5745C37.6566 73.4947 37.3233 74.7571 37.3347 76.2289L37.3183 77.7564C37.3132 78.3004 37.4975 78.9316 37.832 79.5085C38.1666 80.0854 38.6235 80.5638 39.1045 80.8365C39.5842 81.1104 40.0474 81.1558 40.3933 80.9652C40.7379 80.7734 40.9361 80.3593 40.9437 79.814L40.9639 78.284C40.95 77.5531 41.104 76.922 41.4095 76.4549C41.7162 75.9866 42.1644 75.6988 42.7084 75.6205C44.0478 75.5422 45.1384 74.8719 45.8289 73.6967C46.522 72.5189 46.7795 70.8931 46.5623 69.0437C46.3452 67.1906 45.6623 65.205 44.6095 63.3658C43.5567 61.5253 42.1858 59.9246 40.69 58.7848V58.786Z" fill="#5897F5"/>
<path d="M40.7014 86.0903C40.7166 84.9542 39.9175 83.5682 38.9177 82.9988C37.9205 82.4295 37.1038 82.889 37.0924 84.0239C37.081 85.1562 37.8763 86.5359 38.871 87.1065C39.867 87.6783 40.6875 87.2239 40.7014 86.0903Z" fill="#5897F5"/>
</g>
<defs>
<radialGradient id="paint0_radial_1109_3968" cx="0" cy="0" r="1" gradientUnits="userSpaceOnUse" gradientTransform="translate(81.0228 58.0143) scale(9.63667 9.63666)">
<stop offset="0.02" stop-color="white"/>
<stop offset="0.49" stop-color="#DCDCDE"/>
<stop offset="1" stop-color="#BBBCBF"/>
</radialGradient>
<radialGradient id="paint1_radial_1109_3968" cx="0" cy="0" r="1" gradientUnits="userSpaceOnUse" gradientTransform="translate(61.2977 36.5951) scale(19.9171 19.9171)">
<stop offset="0.02" stop-color="white"/>
<stop offset="0.49" stop-color="#DCDCDE"/>
<stop offset="1" stop-color="#BBBCBF"/>
</radialGradient>
<radialGradient id="paint2_radial_1109_3968" cx="0" cy="0" r="1" gradientUnits="userSpaceOnUse" gradientTransform="translate(39.9197 85.147) scale(8.63942)">
<stop offset="0.02" stop-color="white"/>
<stop offset="0.49" stop-color="#DCDCDE"/>
<stop offset="1" stop-color="#BBBCBF"/>
</radialGradient>
<radialGradient id="paint3_radial_1109_3968" cx="0" cy="0" r="1" gradientUnits="userSpaceOnUse" gradientTransform="translate(40.0462 55.4985) scale(7.58158)">
<stop offset="0.01" stop-color="white"/>
<stop offset="0.49" stop-color="#DCDCDE"/>
<stop offset="1" stop-color="#BBBCBF"/>
</radialGradient>
<radialGradient id="paint4_radial_1109_3968" cx="0" cy="0" r="1" gradientUnits="userSpaceOnUse" gradientTransform="translate(59.846 37.2262) scale(19.9171 19.9171)">
<stop offset="0.01" stop-color="white"/>
<stop offset="0.49" stop-color="#DCDCDE"/>
<stop offset="1" stop-color="#BBBCBF"/>
</radialGradient>
<clipPath id="clip0_1109_3968">
<rect width="120" height="120" rx="14" fill="white"/>
</clipPath>
</defs>
</svg>
