<svg width="120" height="120" viewBox="0 0 120 120" fill="none" xmlns="http://www.w3.org/2000/svg">
<rect width="120" height="120" rx="14" fill="#F1F8FF"/>
<path d="M63.9293 23.3533C60.7593 22.7803 57.5012 22.9055 54.3854 23.72C51.2696 24.5346 48.3723 26.0185 45.8986 28.0669C43.4249 30.1153 41.4351 32.6781 40.0702 35.5739C38.7053 38.4696 37.9986 41.6276 38 44.8244C38 46.2708 38.5791 47.6579 39.61 48.6807C40.6409 49.7035 42.0391 50.278 43.497 50.278C44.9549 50.278 46.3531 49.7035 47.384 48.6807C48.4148 47.6579 48.994 46.2708 48.994 44.8244C48.9926 43.2198 49.3481 41.6346 50.0351 40.182C50.7221 38.7293 51.7236 37.445 52.9684 36.4204C54.2132 35.3959 55.6704 34.6565 57.2363 34.2549C58.8022 33.8533 60.4381 33.7994 62.0273 34.097C64.1989 34.5152 66.1955 35.5662 67.7621 37.1156C69.3287 38.665 70.3942 40.6425 70.8225 42.7956C71.2551 45.0556 70.9564 47.3935 69.9692 49.4749C68.9819 51.5564 67.3565 53.2748 65.3255 54.3846C61.9623 56.3178 59.1831 59.1103 57.2775 62.4713C55.3719 65.8324 54.4097 69.6389 54.491 73.4943V77.5463C54.491 78.9927 55.0701 80.3799 56.101 81.4027C57.1319 82.4254 58.5301 83 59.988 83C61.4459 83 62.844 82.4254 63.8749 81.4027C64.9058 80.3799 65.485 78.9927 65.485 77.5463V73.4943C65.416 71.5965 65.8522 69.7141 66.7496 68.0368C67.6471 66.3594 68.9741 64.9462 70.5972 63.9395C74.5798 61.7693 77.7869 58.4283 79.7776 54.3759C81.7682 50.3236 82.4446 45.7589 81.7136 41.3096C80.9826 36.8604 78.8803 32.745 75.6956 29.5296C72.5109 26.3141 68.4004 24.1564 63.9293 23.3533Z" fill="#AECFFF"/>
<path d="M65 94.5C65 91.4624 62.5376 89 59.5 89C56.4624 89 54 91.4624 54 94.5C54 97.5376 56.4624 100 59.5 100C62.5376 100 65 97.5376 65 94.5Z" fill="#AECFFF"/>
</svg>