<svg width="148" height="217" viewBox="0 0 148 217" fill="none" xmlns="http://www.w3.org/2000/svg">
<path d="M24.5886 203.99H37.0179V197.946H5.22398V203.99H17.4732C16.4825 206.302 12.0691 208.968 4.68358 210.124L3.5127 210.302L5.40412 216.435L6.3048 216.257C13.0599 215.013 18.2838 212.79 21.3461 209.857L35.847 216.613L38.3689 210.657L24.4084 204.79C24.4084 204.79 24.4985 204.346 24.4985 204.079L24.5886 203.99Z" fill="#4785FF"/>
<path d="M36.4775 174.479H29.6323V197.324H36.4775V187.813H42.3319V181.768H36.4775V174.479Z" fill="#4785FF"/>
<path d="M14.6811 190.657L24.9488 197.679L28.2813 192.168L17.4732 185.502C17.7434 184.613 17.9235 183.724 17.9235 182.835H26.8402V176.968H18.0136V172.613H11.1684V176.968H2.16163V182.835H11.1684C10.7181 186.568 6.75509 190.124 1.08081 191.813L0 192.168L2.88217 198.035L3.69278 197.768C8.28624 196.257 12.0691 193.679 14.6811 190.568V190.657Z" fill="#4785FF"/>
<path d="M58.0933 176.968C49.8971 176.968 43.9526 182.835 43.9526 190.835C43.9526 198.835 49.8971 204.702 58.0933 204.702C66.2895 204.702 72.2339 198.835 72.2339 190.835C72.2339 182.835 66.2895 176.968 58.0933 176.968ZM58.0933 198.479C53.77 198.479 50.7978 195.368 50.7978 190.835C50.7978 186.302 53.77 183.19 58.0933 183.19C62.4165 183.19 65.3888 186.302 65.3888 190.835C65.3888 195.368 62.4165 198.479 58.0933 198.479Z" fill="#4785FF"/>
<path d="M81.1509 174.479H74.4858V215.901H81.1509V194.39H87.4556V188.168H81.1509V174.479Z" fill="#4785FF"/>
<path d="M90.698 189.502L89.6172 189.857L92.5894 196.168L93.4 195.902C97.9034 194.302 101.596 192.168 104.028 189.502L114.386 195.813L117.989 189.946L107.27 183.902C107.541 183.102 107.631 182.302 107.721 181.413H116.728V175.279H91.7788V181.413H100.786C100.245 184.257 97.0928 187.724 90.6079 189.591L90.698 189.502Z" fill="#4785FF"/>
<path d="M120.151 204.257H111.054V210.302H120.151V215.901H126.996V174.479H120.151V204.257Z" fill="#4785FF"/>
<path d="M118.079 196.524H89.2573V202.568H100.336V215.99H107.271V202.568H118.079V196.524Z" fill="#4785FF"/>
<path d="M135.912 205.857C133.66 205.413 131.408 206.746 130.868 208.968C130.418 211.19 131.859 213.324 134.11 213.857C136.362 214.302 138.614 212.968 139.154 210.746C139.605 208.524 138.163 206.39 135.912 205.857Z" fill="#4785FF"/>
<path d="M138.795 175.102L134.021 201.59L139.335 202.657L146 176.613L138.795 175.102Z" fill="#4785FF"/>
<path d="M34.3261 69.0288L41.6321 75.2779L49.2265 66.433L56.8209 75.2779L64.1269 69.0288L57.3977 61.1453L66.6263 57.7804L63.2617 48.7432L54.1292 52.1081V42.3018L44.516 42.2056V52.1081L35.1913 48.7432L31.8267 57.7804L41.0553 61.1453L34.3261 69.0288Z" fill="#4785FF"/>
<path d="M63.4539 86.9109L74.0284 85.7572L64.1269 98.4477L71.7213 104.408L78.5466 95.5635L89.0249 101.62L93.8315 93.2561L84.4106 87.9684L89.794 81.0463L82.1996 75.0856V75.1818V75.0856L62.3965 77.2968L63.4539 86.9109Z" fill="#4785FF"/>
<path d="M69.318 156.613L118.057 136.904L124.498 96.1404L147.665 44.2246L69.318 0L64.0308 34.0337L73.5478 35.4758L76.7202 15.094L135.457 48.1663L116.134 91.5256L89.4096 111.811L95.1774 119.502L113.346 105.658L109.501 129.886L75.4705 143.634L79.4119 118.829L14.6191 83.9305L20.6754 136.615L69.318 156.42V156.613ZM68.7412 124.213L65.4728 144.691L29.5195 130.078L26.1549 101.332L68.6451 124.213H68.7412Z" fill="#4785FF"/>
<path d="M84.603 41.2442L70.8562 65.3754L79.2197 70.0863L83.7378 62.2028L91.6206 66.7214L96.4272 58.3572L88.5444 53.8386L92.9665 45.9551L84.603 41.2442Z" fill="#4785FF"/>
</svg>
