<svg width="253" height="304" viewBox="0 0 253 304" fill="none" xmlns="http://www.w3.org/2000/svg">
<path d="M131.715 71.5139C127.105 70.6804 122.365 70.8625 117.833 72.0473C113.301 73.2321 109.087 75.3906 105.489 78.3701C101.891 81.3496 98.9966 85.0772 97.0112 89.2893C95.0259 93.5013 93.9979 98.0947 94 102.745C94 104.848 94.8424 106.866 96.3419 108.354C97.8413 109.841 99.8751 110.677 101.996 110.677C104.116 110.677 106.15 109.841 107.649 108.354C109.149 106.866 109.991 104.848 109.991 102.745C109.989 100.411 110.506 98.1049 111.506 95.992C112.505 93.879 113.962 92.0109 115.772 90.5207C117.583 89.0304 119.702 87.9549 121.98 87.3707C124.258 86.7866 126.637 86.7082 128.949 87.1411C132.107 87.7494 135.012 89.2781 137.29 91.5317C139.569 93.7854 141.119 96.6619 141.742 99.7936C142.371 103.081 141.937 106.481 140.501 109.509C139.065 112.537 136.7 115.036 133.746 116.65C128.854 119.462 124.812 123.524 122.04 128.413C119.268 133.302 117.869 138.838 117.987 144.446V150.34C117.987 152.444 118.829 154.462 120.329 155.949C121.828 157.437 123.862 158.273 125.982 158.273C128.103 158.273 130.137 157.437 131.636 155.949C133.136 154.462 133.978 152.444 133.978 150.34V144.446C133.878 141.686 134.512 138.948 135.818 136.508C137.123 134.068 139.053 132.013 141.414 130.548C147.207 127.392 151.872 122.532 154.767 116.638C157.663 110.743 158.647 104.104 157.583 97.6322C156.52 91.1605 153.462 85.1746 148.83 80.4975C144.198 75.8205 138.219 72.6821 131.715 71.5139Z" fill="#5270FF"/>
<path d="M133.273 175C133.273 170.582 129.691 167 125.273 167C120.855 167 117.273 170.582 117.273 175C117.273 179.418 120.855 183 125.273 183C129.691 183 133.273 179.418 133.273 175Z" fill="#5270FF"/>
<g clip-path="url(#clip0_275_14747)">
<path d="M17 58.58L23.44 57.39L24.89 50.59L26.33 57.39L32.77 58.59L26.35 60.15L24.88 66.57L23.42 60.15L17 58.58Z" fill="#5471FF"/>
<path d="M193.67 189.66L200.11 188.47L201.55 181.68L202.99 188.48L209.44 189.67L203.02 191.24L201.55 197.65L200.08 191.24L193.67 189.66Z" fill="#5471FF"/>
<path d="M49.99 166.32L53.6 165.66L54.4 161.86L55.2 165.66L58.81 166.33L55.22 167.2L54.4 170.79L53.58 167.2L49.99 166.32Z" fill="#5471FF"/>
<path d="M55.0801 41.05L58.6801 40.38L59.4901 36.59L60.2901 40.38L63.8901 41.05L60.3001 41.93L59.4801 45.51L58.6601 41.93L55.0801 41.05Z" fill="#5471FF"/>
<path d="M226.91 68.36L230.51 67.7L231.32 63.9L232.12 67.7L235.72 68.37L232.13 69.24L231.31 72.83L230.49 69.24L226.91 68.36Z" fill="#5471FF"/>
<path d="M129.42 4.46L133.02 3.8L133.83 0L134.63 3.8L138.23 4.47L134.65 5.34L133.83 8.93L133.01 5.34L129.42 4.46Z" fill="#5471FF"/>
<path d="M39.8399 175.01C41.1799 175.01 41.1899 172.92 39.8399 172.92C38.4899 172.92 38.4899 175.01 39.8399 175.01Z" fill="#5471FF"/>
<path d="M214.34 179.89C215.29 179.89 215.29 178.41 214.34 178.41C213.39 178.41 213.39 179.89 214.34 179.89Z" fill="#5471FF"/>
<path d="M43.37 114.48C44.32 114.48 44.32 113 43.37 113C42.42 113 42.42 114.48 43.37 114.48Z" fill="#5471FF"/>
<path d="M209.49 41.85C210.44 41.85 210.44 40.37 209.49 40.37C208.54 40.37 208.54 41.85 209.49 41.85Z" fill="#5471FF"/>
<path d="M35.9701 65.3C36.9201 65.3 36.9201 63.82 35.9701 63.82C35.0201 63.82 35.0201 65.3 35.9701 65.3Z" fill="#5471FF"/>
<path d="M226.12 115.29C227.07 115.29 227.07 113.81 226.12 113.81C225.17 113.81 225.17 115.29 226.12 115.29Z" fill="#5471FF"/>
<path d="M157.34 9.67C158.29 9.67 158.29 8.19 157.34 8.19C156.39 8.19 156.39 9.67 157.34 9.67Z" fill="#5471FF"/>
<path d="M214.18 114.55C216.76 114.55 216.76 110.55 214.18 110.55C211.6 110.55 211.6 114.55 214.18 114.55Z" fill="#5471FF"/>
<path d="M181.54 42.36C184.12 42.36 184.12 38.36 181.54 38.36C178.96 38.36 178.96 42.36 181.54 42.36Z" fill="#5471FF"/>
<path d="M62.28 142.99C64.86 142.99 64.86 138.99 62.28 138.99C59.7 138.99 59.7 142.99 62.28 142.99Z" fill="#5471FF"/>
<path d="M229 211.04H23.97V303.28H229V211.04Z" fill="#5471FF"/>
<path opacity="0.1" d="M229 211.04H23.97V303.28H229V211.04Z" fill="black"/>
<path opacity="0.2" d="M228.99 211.06H126.48V303.3H228.99V211.06Z" fill="black"/>
<path d="M223.57 296.96C215.67 290.4 207.83 283.82 200.07 277.21L176.91 257.36L154.05 237.43C146.47 230.77 138.97 224.09 131.54 217.4C139.45 223.96 147.28 230.54 155.04 237.15L178.19 257L201.05 276.94C208.63 283.6 216.13 290.28 223.56 296.97L223.57 296.96Z" fill="#5471FF"/>
<path d="M223.6 217.43C216.16 224.12 208.66 230.8 201.07 237.45L178.2 257.37L155.03 277.2C147.27 283.8 139.43 290.38 131.51 296.93C138.95 290.24 146.45 283.56 154.04 276.91L176.91 256.99L200.08 237.16C207.84 230.56 215.68 223.99 223.59 217.43H223.6Z" fill="#5471FF"/>
<path d="M42.8307 297.225L43.4807 297.225L43.4839 288.105L42.8339 288.105L42.8307 297.225Z" fill="white"/>
<path d="M41.2807 297.215L41.9307 297.216L41.9338 288.096L41.2838 288.095L41.2807 297.215Z" fill="white"/>
<path d="M39.7206 297.226L40.3706 297.226L40.3738 288.106L39.7238 288.106L39.7206 297.226Z" fill="white"/>
<path d="M38.1706 297.226L38.8206 297.227L38.8237 288.107L38.1737 288.106L38.1706 297.226Z" fill="white"/>
<path d="M36.6208 297.227L37.2708 297.227L37.2739 288.107L36.6239 288.107L36.6208 297.227Z" fill="white"/>
<path d="M35.0707 297.228L35.7207 297.228L35.7239 288.108L35.0739 288.108L35.0707 297.228Z" fill="white"/>
<path d="M33.5207 297.218L34.1707 297.218L34.1738 288.098L33.5238 288.098L33.5207 297.218Z" fill="white"/>
<path d="M31.9706 297.219L32.6206 297.219L32.6238 288.099L31.9738 288.099L31.9706 297.219Z" fill="white"/>
<path d="M30.4206 297.219L31.0706 297.219L31.0737 288.099L30.4237 288.099L30.4206 297.219Z" fill="white"/>
<path d="M49.8301 296.53L47.3401 297.22H53.1801L50.6901 296.52V293.17C52.4701 292.94 53.1801 291.18 53.1801 288.11H47.3401C47.3401 291.17 48.0501 292.94 49.8301 293.17V296.53Z" fill="white"/>
<path d="M54.55 292.76H56.07V297.23H59.9701V292.76H61.5L58.0201 288.11L54.55 292.76Z" fill="white"/>
<path opacity="0.1" d="M23.95 303.24V299.72L126.46 291.73V303.28L23.95 303.24Z" fill="black"/>
<path d="M102.51 236.27L0 236.22L23.98 211L126.49 211.04L102.51 236.27Z" fill="#5471FF"/>
<path d="M150.46 236.28L252.97 236.33L229 211.08L126.49 211.04L150.46 236.28Z" fill="#5471FF"/>
<path opacity="0.1" d="M150.46 236.28L252.97 236.33L229 211.08L126.49 211.04L150.46 236.28Z" fill="black"/>
</g>
<defs>
<clipPath id="clip0_275_14747">
<rect width="252.97" height="303.33" fill="white"/>
</clipPath>
</defs>
</svg>
