<svg width="143" height="104" viewBox="0 0 143 104" fill="none" xmlns="http://www.w3.org/2000/svg">
<path d="M10.374 99.694V93.268H8.708V99.512H7.28V87.276H8.708V91.98H10.374V87.248H11.83V99.694H10.374ZM4.368 87.542V88.984C4.368 89.852 4.27 90.762 4.074 91.714L6.65 96.544L5.656 97.776L3.584 93.562C3.332 94.3367 3.01467 95.102 2.632 95.858C2.25867 96.614 1.82 97.342 1.316 98.042L0.308 96.712C0.746667 96.152 1.12933 95.5593 1.456 94.934C1.78267 94.2993 2.05333 93.6507 2.268 92.988C2.48267 92.3253 2.64133 91.6533 2.744 90.972C2.84667 90.2907 2.898 89.628 2.898 88.984V87.542H4.368ZM13.376 99.022V97.72H18.57V95.172H14.636V90.622H22.392V88.62H14.608V87.374H23.918V91.854H16.162V93.94H24.184V95.172H20.082V97.72H25.276V99.022H13.376ZM32.072 93.086C31.512 93.086 30.9987 93.0113 30.532 92.862C30.0654 92.7127 29.664 92.5027 29.328 92.232C28.992 91.952 28.726 91.6253 28.53 91.252C28.3434 90.8693 28.25 90.454 28.25 90.006C28.25 89.558 28.3434 89.1427 28.53 88.76C28.726 88.3773 28.992 88.0507 29.328 87.78C29.664 87.5093 30.0654 87.2993 30.532 87.15C30.9987 86.9913 31.512 86.912 32.072 86.912C32.632 86.912 33.1454 86.9913 33.612 87.15C34.0787 87.2993 34.48 87.5093 34.816 87.78C35.152 88.0507 35.4134 88.3773 35.6 88.76C35.796 89.1427 35.894 89.558 35.894 90.006C35.894 90.454 35.796 90.8693 35.6 91.252C35.4134 91.6253 35.152 91.952 34.816 92.232C34.48 92.5027 34.0787 92.7127 33.612 92.862C33.1454 93.0113 32.632 93.086 32.072 93.086ZM32.072 91.868C32.772 91.868 33.3274 91.6953 33.738 91.35C34.158 91.0047 34.368 90.5567 34.368 90.006C34.368 89.7353 34.312 89.488 34.2 89.264C34.0974 89.0307 33.9434 88.8347 33.738 88.676C33.542 88.508 33.2994 88.3773 33.01 88.284C32.73 88.1907 32.4174 88.144 32.072 88.144C31.7267 88.144 31.4094 88.1907 31.12 88.284C30.84 88.3773 30.5974 88.508 30.392 88.676C30.196 88.8347 30.042 89.0307 29.93 89.264C29.8274 89.488 29.776 89.7353 29.776 90.006C29.776 90.5567 29.9814 91.0047 30.392 91.35C30.812 91.6953 31.372 91.868 32.072 91.868ZM26.122 93.842H38.022V95.116H33.038V97.048H31.526V95.116H26.122V93.842ZM27.312 99.526V96.068H28.824V98.224H36.944V99.526H27.312ZM46.9966 92.848C46.4459 92.848 45.9466 92.778 45.4986 92.638C45.0599 92.4887 44.6819 92.288 44.3646 92.036C44.0472 91.7747 43.7999 91.4667 43.6226 91.112C43.4546 90.748 43.3706 90.356 43.3706 89.936C43.3706 89.516 43.4546 89.1287 43.6226 88.774C43.7999 88.41 44.0472 88.0973 44.3646 87.836C44.6819 87.5747 45.0599 87.374 45.4986 87.234C45.9466 87.0847 46.4459 87.01 46.9966 87.01C47.5379 87.01 48.0326 87.0847 48.4806 87.234C48.9286 87.374 49.3112 87.5747 49.6286 87.836C49.9459 88.0973 50.1886 88.41 50.3566 88.774C50.5339 89.1287 50.6226 89.516 50.6226 89.936C50.6226 90.356 50.5339 90.748 50.3566 91.112C50.1886 91.4667 49.9459 91.7747 49.6286 92.036C49.3112 92.288 48.9286 92.4887 48.4806 92.638C48.0326 92.778 47.5379 92.848 46.9966 92.848ZM52.1206 92.96V87.248H53.6326V89.32H55.4526V90.622H53.6326V92.96H52.1206ZM46.9966 91.63C47.3046 91.63 47.5846 91.5927 47.8366 91.518C48.0979 91.434 48.3219 91.3173 48.5086 91.168C48.7046 91.0187 48.8539 90.8413 48.9566 90.636C49.0592 90.4213 49.1106 90.188 49.1106 89.936C49.1106 89.684 49.0592 89.4553 48.9566 89.25C48.8539 89.0353 48.7046 88.8533 48.5086 88.704C48.3219 88.5547 48.0979 88.4427 47.8366 88.368C47.5846 88.284 47.3046 88.242 46.9966 88.242C46.6886 88.242 46.4039 88.284 46.1426 88.368C45.8906 88.4427 45.6666 88.5547 45.4706 88.704C45.2839 88.8533 45.1392 89.0353 45.0366 89.25C44.9339 89.4553 44.8826 89.684 44.8826 89.936C44.8826 90.188 44.9339 90.4213 45.0366 90.636C45.1392 90.8413 45.2839 91.0187 45.4706 91.168C45.6666 91.3173 45.8906 91.434 46.1426 91.518C46.4039 91.5927 46.6886 91.63 46.9966 91.63ZM44.6726 99.61V96.04H52.1206V94.934H44.6446V93.73H53.6326V97.174H46.1846V98.364H53.9126V99.61H44.6726ZM65.2866 94.164V87.248H66.7986V94.164H65.2866ZM56.6906 93.66V89.908H61.7866V88.564H56.6626V87.36H63.2986V91.056H58.2026V92.47H64.1666V93.66H56.6906ZM57.5586 99.554V95.004H66.7986V99.554H57.5586ZM59.0566 98.308H65.3006V96.222H59.0566V98.308ZM78.8026 99.694V87.248H80.3146V99.694H78.8026ZM73.0346 96.152C72.4279 96.152 71.8679 96.054 71.3546 95.858C70.8413 95.6527 70.3979 95.368 70.0246 95.004C69.6513 94.64 69.3573 94.2107 69.1426 93.716C68.9373 93.2213 68.8346 92.68 68.8346 92.092C68.8346 91.504 68.9373 90.9627 69.1426 90.468C69.3573 89.9733 69.6513 89.544 70.0246 89.18C70.3979 88.816 70.8413 88.536 71.3546 88.34C71.8679 88.1347 72.4279 88.032 73.0346 88.032C73.6413 88.032 74.2013 88.1347 74.7146 88.34C75.2279 88.536 75.6713 88.816 76.0446 89.18C76.4179 89.544 76.7073 89.9733 76.9126 90.468C77.1273 90.9627 77.2346 91.504 77.2346 92.092C77.2346 92.68 77.1273 93.2213 76.9126 93.716C76.7073 94.2107 76.4179 94.64 76.0446 95.004C75.6713 95.368 75.2279 95.6527 74.7146 95.858C74.2013 96.054 73.6413 96.152 73.0346 96.152ZM73.0346 94.822C73.4266 94.822 73.7813 94.7567 74.0986 94.626C74.4253 94.486 74.7053 94.2947 74.9386 94.052C75.1813 93.8093 75.3679 93.52 75.4986 93.184C75.6293 92.848 75.6946 92.484 75.6946 92.092C75.6946 91.7 75.6293 91.336 75.4986 91C75.3679 90.664 75.1813 90.3747 74.9386 90.132C74.7053 89.8893 74.4253 89.7027 74.0986 89.572C73.7813 89.432 73.4266 89.362 73.0346 89.362C72.6426 89.362 72.2833 89.432 71.9566 89.572C71.6393 89.7027 71.3593 89.8893 71.1166 90.132C70.8833 90.3747 70.7013 90.664 70.5706 91C70.4399 91.336 70.3746 91.7 70.3746 92.092C70.3746 92.484 70.4399 92.848 70.5706 93.184C70.7013 93.52 70.8833 93.8093 71.1166 94.052C71.3593 94.2947 71.6393 94.486 71.9566 94.626C72.2833 94.7567 72.6426 94.822 73.0346 94.822ZM95.5546 93.254V90.72H93.5666C93.4919 91.0747 93.3566 91.4013 93.1606 91.7C92.9739 91.9987 92.7266 92.2553 92.4186 92.47C92.1199 92.6847 91.7653 92.8573 91.3546 92.988C90.9533 93.1093 90.5053 93.17 90.0106 93.17C89.4413 93.17 88.9326 93.0907 88.4846 92.932C88.0366 92.7733 87.6539 92.554 87.3366 92.274C87.0286 91.994 86.7906 91.6673 86.6226 91.294C86.4639 90.9207 86.3846 90.5193 86.3846 90.09C86.3846 89.6607 86.4639 89.2593 86.6226 88.886C86.7906 88.5127 87.0286 88.186 87.3366 87.906C87.6539 87.626 88.0366 87.4067 88.4846 87.248C88.9326 87.0893 89.4413 87.01 90.0106 87.01C90.5053 87.01 90.9533 87.0707 91.3546 87.192C91.7559 87.3133 92.1059 87.486 92.4046 87.71C92.7126 87.9247 92.9646 88.1813 93.1606 88.48C93.3566 88.7693 93.4919 89.0867 93.5666 89.432H95.5546V87.248H97.0386V93.254H95.5546ZM90.0106 91.952C90.3279 91.952 90.6173 91.9053 90.8786 91.812C91.1399 91.7187 91.3593 91.588 91.5366 91.42C91.7233 91.252 91.8679 91.056 91.9706 90.832C92.0733 90.5987 92.1246 90.3513 92.1246 90.09C92.1246 89.8287 92.0733 89.586 91.9706 89.362C91.8679 89.1287 91.7233 88.928 91.5366 88.76C91.3593 88.592 91.1399 88.4613 90.8786 88.368C90.6173 88.2747 90.3279 88.228 90.0106 88.228C89.6933 88.228 89.4039 88.2747 89.1426 88.368C88.8813 88.4613 88.6573 88.592 88.4706 88.76C88.2933 88.928 88.1533 89.1287 88.0506 89.362C87.9479 89.586 87.8966 89.8287 87.8966 90.09C87.8966 90.3513 87.9479 90.5987 88.0506 90.832C88.1533 91.056 88.2933 91.252 88.4706 91.42C88.6573 91.588 88.8813 91.7187 89.1426 91.812C89.4039 91.9053 89.6933 91.952 90.0106 91.952ZM95.9326 94.024V94.696C95.9326 94.9573 95.9139 95.2187 95.8766 95.48C95.8393 95.732 95.7833 95.984 95.7086 96.236L97.9486 98.7L96.9406 99.75L95.1346 97.566C94.6679 98.3687 94.0006 99.1247 93.1326 99.834L92.4466 98.952V99.61H87.3646V94.024H88.7646V95.62H91.0886V94.024H92.4466V98.49C93.1933 97.958 93.7206 97.3607 94.0286 96.698C94.3459 96.0353 94.5046 95.368 94.5046 94.696V94.024H95.9326ZM91.0886 98.42V96.754H88.7646V98.42H91.0886ZM99.7046 90.622C100.442 90.4727 101.095 90.2907 101.665 90.076C102.234 89.852 102.71 89.614 103.093 89.362C103.475 89.11 103.765 88.8533 103.961 88.592C104.157 88.3213 104.255 88.06 104.255 87.808V87.276H105.823V87.808C105.823 88.088 105.771 88.3727 105.669 88.662L110.331 90.566L109.743 91.868L104.955 89.726C104.479 90.202 103.835 90.6267 103.023 91C102.211 91.3733 101.24 91.6813 100.111 91.924L99.7046 90.622ZM99.0746 93.982V92.694H110.975V93.982H99.0746ZM101.665 95.872H108.385V94.794H109.855V99.554H100.195V94.794H101.665V95.872ZM108.385 98.322V97.076H101.665V98.322H108.385ZM120.921 99.694V87.248H122.461V99.694H120.921ZM112.633 97.706V87.542H114.187V96.376H119.801V97.706H112.633ZM133.205 99.694V87.248H134.717V91.784H136.747V93.114H134.717V99.694H133.205ZM125.239 97.734V87.57H131.497V88.858H126.765V96.432H132.225V97.734H125.239ZM138.811 99.19C138.54 99.19 138.302 99.092 138.097 98.896C137.901 98.7093 137.803 98.4807 137.803 98.21C137.803 97.9393 137.901 97.7107 138.097 97.524C138.293 97.328 138.531 97.23 138.811 97.23C139.081 97.23 139.315 97.328 139.511 97.524C139.716 97.7107 139.819 97.9393 139.819 98.21C139.819 98.4807 139.716 98.7093 139.511 98.896C139.315 99.092 139.081 99.19 138.811 99.19Z" fill="#757575"/>
<path opacity="0.2" d="M92.8745 52.5H49.1245C48.7417 52.4977 48.3661 52.3949 48.0354 52.202C47.7047 52.0091 47.4304 51.7327 47.24 51.4006C47.0495 51.0684 46.9496 50.6921 46.9502 50.3092C46.9508 49.9263 47.0518 49.5503 47.2433 49.2188C49.0452 46.1016 51.312 38.2293 51.312 28.4375C51.312 23.2161 53.3862 18.2085 57.0784 14.5163C60.7705 10.8242 65.7781 8.75 70.9995 8.75C76.221 8.75 81.2286 10.8242 84.9207 14.5163C88.6128 18.2085 90.687 23.2161 90.687 28.4375C90.687 38.232 92.9566 46.1016 94.7613 49.2188C94.9529 49.5507 95.054 49.9272 95.0543 50.3106C95.0547 50.6939 94.9543 51.0706 94.7632 51.4029C94.5721 51.7352 94.2971 52.0115 93.9656 52.204C93.6341 52.3966 93.2579 52.4986 92.8745 52.5Z" fill="#757575"/>
<path d="M50.7435 9.46651C50.5514 9.24996 50.3182 9.0737 50.0575 8.94794C49.7968 8.82217 49.5137 8.7494 49.2246 8.73385C48.9356 8.7183 48.6463 8.76028 48.3736 8.85734C48.1009 8.95441 47.8501 9.10464 47.6359 9.29933C47.4217 9.49401 47.2482 9.72928 47.1256 9.9915C47.003 10.2537 46.9336 10.5377 46.9215 10.8269C46.9094 11.1161 46.9549 11.4048 47.0552 11.6764C47.1555 11.9479 47.3088 12.1968 47.506 12.4087L52.0834 17.4454C50.1394 20.7821 49.1183 24.5759 49.1248 28.4376C49.1248 38.1009 46.8662 45.4946 45.3486 48.1087C44.961 48.7733 44.7556 49.5283 44.753 50.2976C44.7503 51.0669 44.9506 51.8233 45.3335 52.4905C45.7165 53.1577 46.2686 53.7122 46.9343 54.0979C47.5999 54.4836 48.3554 54.687 49.1248 54.6876H60.281C60.7831 57.1601 62.1245 59.383 64.0779 60.9797C66.0314 62.5763 68.4768 63.4486 70.9998 63.4486C73.5227 63.4486 75.9681 62.5763 77.9216 60.9797C79.875 59.383 81.2164 57.1601 81.7185 54.6876H85.9404L91.256 60.5337C91.4481 60.7502 91.6813 60.9265 91.942 61.0523C92.2027 61.178 92.4858 61.2508 92.7749 61.2664C93.0639 61.2819 93.3532 61.2399 93.6259 61.1429C93.8986 61.0458 94.1494 60.8956 94.3636 60.7009C94.5778 60.5062 94.7513 60.2709 94.8739 60.0087C94.9965 59.7465 95.0659 59.4625 95.078 59.1733C95.0901 58.8841 95.0446 58.5954 94.9443 58.3238C94.844 58.0523 94.6907 57.8034 94.4935 57.5915L50.7435 9.46651ZM70.9998 59.0626C69.643 59.0622 68.3198 58.6413 67.2121 57.8578C66.1044 57.0743 65.2669 55.9668 64.8146 54.6876H77.1849C76.7327 55.9668 75.8951 57.0743 74.7874 57.8578C73.6798 58.6413 72.3565 59.0622 70.9998 59.0626ZM49.1248 50.3126C51.2302 46.6923 53.4998 38.3032 53.4998 28.4376C53.4959 25.8236 54.081 23.2422 55.2115 20.8853L81.9619 50.3126H49.1248ZM94.5154 49.0192C94.2599 49.1183 93.9883 49.1693 93.7142 49.1696C93.2748 49.1692 92.8458 49.0364 92.4829 48.7887C92.12 48.5409 91.8402 48.1896 91.6798 47.7806C89.6892 42.7083 88.4998 35.4786 88.4998 28.4376C88.5006 25.3768 87.6987 22.3692 86.174 19.7152C84.6493 17.0612 82.4551 14.8534 79.8105 13.3124C77.1659 11.7713 74.1634 10.9509 71.1026 10.9329C68.0418 10.9149 65.0299 11.7 62.3673 13.2099C61.8639 13.4827 61.2736 13.5472 60.7231 13.3896C60.1726 13.2319 59.7059 12.8648 59.4231 12.3669C59.1403 11.8689 59.064 11.28 59.2106 10.7265C59.3572 10.173 59.715 9.69901 60.2072 9.40635C63.5351 7.51868 67.3 6.53688 71.126 6.55896C74.952 6.58104 78.7053 7.60622 82.0112 9.53218C85.3172 11.4581 88.0602 14.2175 89.9664 17.5349C91.8726 20.8522 92.8755 24.6116 92.8748 28.4376C92.8748 38.1036 95.0759 44.4583 95.7513 46.1782C95.9634 46.7181 95.9523 47.3202 95.7205 47.8519C95.4887 48.3837 95.0552 48.8016 94.5154 49.0138V49.0192Z" fill="#757575"/>
</svg>
