<svg width="88" height="88" viewBox="0 0 88 88" fill="none" xmlns="http://www.w3.org/2000/svg">
<g clip-path="url(#clip0_672_4274)">
<rect width="88" height="88" fill="#C9DAED"/>
<path d="M88 44C88 47.9073 87.4904 51.7014 86.5277 55.3067C81.5444 74.1356 64.3955 88 44 88C30.2771 88 18.0266 81.7237 9.9571 71.8893C3.73745 64.2917 0 54.58 0 44C0 19.6971 19.6971 0 44 0C68.3029 0 88 19.6971 88 44Z" fill="#C9DAED"/>
<path d="M86.5276 55.3068C81.5443 74.1356 64.3955 88 43.9999 88C30.2771 88 18.0265 81.7238 9.95703 71.8894C22.8305 56.1373 36.7138 54.4573 36.7138 54.4573C36.7138 54.4573 36.3835 52.079 36.7138 51.4372C36.9497 50.9842 37.818 50.5689 38.2994 50.3707C38.4881 50.2952 38.6108 50.248 38.6108 50.248C38.6108 50.248 39.3092 50.1253 40.4041 49.9554C42.6031 49.6062 46.3972 49.0494 49.3418 48.8323C50.2385 48.7568 51.0596 48.719 51.7297 48.7285C52.4564 48.7285 53.0132 48.804 53.3152 48.9455C53.6833 49.1154 54.108 50.248 54.108 50.248C54.108 50.248 59.5538 49.408 67.0759 50.248C70.2376 50.6066 78.0995 52.0601 86.5276 55.3068Z" fill="#3265C9"/>
<path d="M36.5626 30.617C36.5626 30.617 28.8706 28.1442 28.8235 33.9297C28.7763 40.6307 36.7136 39.9512 36.7136 39.9512L36.5626 30.617Z" fill="#F2BFBA"/>
<path d="M33.3917 36.9688C33.2407 36.9688 33.0991 36.9027 33.0048 36.7706L30.1451 32.7688C29.994 32.5612 30.0412 32.2592 30.2583 32.1082C30.4754 31.9572 30.768 32.0044 30.919 32.2214L33.7787 36.2232C33.9297 36.4308 33.8825 36.7328 33.6654 36.8838C33.5805 36.9405 33.4861 36.9688 33.3917 36.9688Z" fill="black"/>
<path d="M30.4 35.9682C30.1641 35.9682 29.9564 35.7889 29.9281 35.5435C29.8998 35.2887 30.0886 35.0527 30.3434 35.0244L32.4481 34.7885C32.7123 34.7601 32.9388 34.9489 32.9671 35.2037C32.9955 35.4586 32.8067 35.6945 32.5519 35.7228L30.4472 35.9588C30.4472 35.9588 30.4094 35.9588 30.3906 35.9588L30.4 35.9682Z" fill="black"/>
<path d="M51.3713 45.1514L52.1547 52.9189C52.1547 52.9189 49.3044 54.8159 45.5575 55.2312C40.4987 55.788 38.5167 52.9472 38.5167 52.9472L37.7051 43.8301L51.3619 45.1514H51.3713Z" fill="#F2BFBA"/>
<path d="M51.3709 45.142C51.3709 45.142 49.5304 51.6542 43.7072 51.3333C39.0071 51.069 37.0723 44.6323 37.0723 44.6323L51.3709 45.142Z" fill="black"/>
<path d="M33.6085 24.4822C33.6085 24.4822 31.6926 39.0073 36.3456 44.9249C41.3477 51.2672 48.1903 48.5963 50.6347 46.3312C53.9286 43.2732 54.3061 39.4131 54.3061 39.4131C54.3061 39.4131 59.2799 39.9322 60.5352 35.7983C61.8565 31.4569 58.4966 28.3706 56.0427 28.3989C53.5794 28.4273 53.3434 28.8992 53.3434 28.8992L53.6454 24.3689C53.6454 24.3689 37.261 9.25866 33.618 24.4916L33.6085 24.4822Z" fill="#F2BFBA"/>
<path d="M54.7026 35.2888C54.5893 35.2888 54.4666 35.2416 54.3723 35.1566C54.1835 34.9773 54.1835 34.6753 54.3628 34.4865L57.8266 30.9001C58.0059 30.7113 58.3079 30.7113 58.4967 30.8907C58.6854 31.07 58.6854 31.372 58.5061 31.5608L55.0424 35.1472C54.948 35.2416 54.8253 35.2888 54.7026 35.2888Z" fill="black"/>
<path d="M58.2419 35.5625C58.157 35.5625 58.072 35.5436 57.9965 35.4964L55.6181 34.0335C55.4011 33.9014 55.3256 33.6088 55.4671 33.3823C55.5993 33.1652 55.8918 33.0897 56.1184 33.2313L58.4967 34.6942C58.7138 34.8263 58.7893 35.1189 58.6477 35.3454C58.5628 35.487 58.4024 35.5719 58.2419 35.5719V35.5625Z" fill="black"/>
<path d="M46.9919 32.0421C46.7371 32.0421 46.5294 31.8439 46.52 31.5891L46.4351 29.1824C46.4351 28.9181 46.6333 28.701 46.8881 28.6916C47.1429 28.6633 47.3694 28.8898 47.3789 29.1446L47.4638 31.5513C47.4638 31.8156 47.2656 32.0327 47.0108 32.0421C47.0108 32.0421 47.0013 32.0421 46.9919 32.0421Z" fill="black"/>
<path d="M37.7898 32.4006C37.5349 32.4006 37.3273 32.2024 37.3179 31.9476L37.2329 29.5409C37.2329 29.2766 37.4311 29.0596 37.6859 29.0501C37.9502 29.0407 38.1673 29.2483 38.1767 29.5031L38.2617 31.9098C38.2617 32.1741 38.0635 32.3912 37.8086 32.4006C37.8086 32.4006 37.7992 32.4006 37.7898 32.4006Z" fill="black"/>
<path d="M42.6127 38.3465C42.4051 38.3465 42.2163 38.2144 42.1597 38.0068C41.0554 34.2882 41.9804 31.1076 42.0181 30.9754C42.0936 30.7301 42.3579 30.579 42.6033 30.6545C42.8487 30.7301 42.9997 30.9943 42.9242 31.2397C42.9242 31.268 42.0464 34.2976 43.0657 37.7331C43.1412 37.9784 42.9997 38.2427 42.7448 38.3182C42.6977 38.3276 42.6505 38.3371 42.6127 38.3371V38.3465Z" fill="black"/>
<path d="M36.1572 27.4835C36.0439 27.4835 35.9213 27.4363 35.8269 27.3514C35.6381 27.1721 35.6287 26.8701 35.808 26.6813C36.7612 25.6809 38.4978 25.5299 38.5733 25.5299C38.8376 25.511 39.0641 25.6997 39.083 25.964C39.1019 26.2188 38.9131 26.4548 38.6488 26.4737C38.63 26.4737 37.2048 26.5964 36.497 27.342C36.4026 27.4363 36.2799 27.4835 36.1572 27.4835Z" fill="black"/>
<path d="M47.983 27.2948C47.898 27.2948 47.8225 27.276 47.747 27.2288C46.8598 26.7097 45.4536 26.9928 45.4347 26.9928C45.1799 27.04 44.9345 26.8796 44.8778 26.6247C44.8307 26.3699 44.9911 26.1245 45.2459 26.0679C45.3214 26.049 47.0203 25.7093 48.2189 26.4171C48.4454 26.5492 48.5209 26.8418 48.3888 27.0589C48.3038 27.2099 48.1434 27.2948 47.983 27.2948Z" fill="black"/>
<path d="M54.4763 28.8048C54.4763 28.8048 53.3532 33.3351 52.768 33.2029C52.1829 33.0803 52.4943 26.0678 54.1177 25.6431C55.741 25.2184 54.4763 28.8048 54.4763 28.8048Z" fill="black"/>
<path d="M43.3204 42.4521C43.0655 42.4521 42.8579 42.2539 42.8485 41.999C42.839 41.7348 43.0372 41.5177 43.3015 41.5083C43.3959 41.5083 45.7082 41.3856 46.6048 39.4036C46.7086 39.1676 46.9918 39.0638 47.2277 39.1676C47.4637 39.2715 47.5675 39.5546 47.4637 39.7906C46.3217 42.3011 43.4619 42.4426 43.3392 42.4426C43.3392 42.4426 43.3298 42.4426 43.3204 42.4426V42.4521Z" fill="black"/>
<path d="M53.7212 28.2197C53.7212 28.2197 48.7663 28.0215 45.3403 25.6054C42.4522 23.5668 41.2347 20.5277 41.2347 20.5277C41.2347 20.5277 39.1017 20.3484 36.1571 22.3398C33.2124 24.3312 33.2219 30.0979 33.2219 30.0979C33.2219 30.0979 27.2004 20.6032 29.7204 17.0357C32.2309 13.4681 36.7139 16.1485 36.7139 16.1485C36.7139 16.1485 35.6663 9.81559 44.5852 11.892C53.5136 13.9683 55.8542 21.4904 55.8542 21.4904C55.8542 21.4904 58.8555 21.094 59.3463 23.8688C59.837 26.6436 58.8272 29.5222 58.8272 29.5222C58.8272 29.5222 57.4681 28.333 55.4861 29.1729L53.5041 30.0035L53.7118 28.2197H53.7212Z" fill="black"/>
<path d="M38.6109 50.2481C38.6109 50.2481 40.3286 51.8714 44.2926 51.9752C48.2565 52.079 51.7392 48.8701 51.7392 48.8701L54.2969 53.5608L47.9734 57.421L37.3745 56.5338V51.7865L38.6015 50.2575L38.6109 50.2481Z" fill="#3265C9"/>
<path d="M42.9903 57.9023C38.7055 57.9023 36.3649 54.7688 36.3365 54.7311C36.1855 54.5235 36.2327 54.2309 36.4404 54.0704C36.648 53.9194 36.95 53.9666 37.101 54.1743C37.2237 54.3441 40.1401 58.2137 45.5952 56.5526C45.8501 56.4771 46.1049 56.6187 46.1804 56.8641C46.2559 57.1095 46.1143 57.3737 45.8689 57.4492C44.8308 57.7607 43.8681 57.8928 42.9903 57.8928V57.9023Z" fill="white"/>
</g>
<defs>
<clipPath id="clip0_672_4274">
<rect width="88" height="88" fill="white"/>
</clipPath>
</defs>
</svg>
